<?xml version="1.0" encoding="UTF-8" standalone="no"?>
<svg
   xmlns:dc="http://purl.org/dc/elements/1.1/"
   xmlns:cc="http://creativecommons.org/ns#"
   xmlns:rdf="http://www.w3.org/1999/02/22-rdf-syntax-ns#"
   xmlns:svg="http://www.w3.org/2000/svg"
   xmlns="http://www.w3.org/2000/svg"
   xmlns:sodipodi="http://sodipodi.sourceforge.net/DTD/sodipodi-0.dtd"
   xmlns:inkscape="http://www.inkscape.org/namespaces/inkscape"
   version="1.1"
   id="svg2"
   xml:space="preserve"
   width="1122.52"
   height="793.70667"
   viewBox="0 0 1122.52 793.70667"
   sodipodi:docname="vegan.eps"><metadata
     id="metadata8"><rdf:RDF><cc:Work
         rdf:about=""><dc:format>image/svg+xml</dc:format><dc:type
           rdf:resource="http://purl.org/dc/dcmitype/StillImage" /></cc:Work></rdf:RDF></metadata><defs
     id="defs6" /><sodipodi:namedview
     pagecolor="#ffffff"
     bordercolor="#666666"
     borderopacity="1"
     objecttolerance="10"
     gridtolerance="10"
     guidetolerance="10"
     inkscape:pageopacity="0"
     inkscape:pageshadow="2"
     inkscape:window-width="640"
     inkscape:window-height="480"
     id="namedview4" /><g
     id="g10"
     inkscape:groupmode="layer"
     inkscape:label="ink_ext_XXXXXX"
     transform="matrix(1.3333333,0,0,-1.3333333,0,793.70667)"><g
       id="g12"
       transform="scale(0.1)"><path
         d="m 4206.06,1545.05 c 780.79,0 1417.39,636.97 1417.39,1417.39 0,780.79 -636.6,1417.4 -1417.39,1417.4 -780.42,0 -1417.39,-636.61 -1417.39,-1417.4 0,-780.42 636.97,-1417.39 1417.39,-1417.39"
         style="fill:#fff200;fill-opacity:1;fill-rule:evenodd;stroke:none"
         id="path14" /><path
         d="m 4188.8,1917.25 c 0,0 10.43,58.23 14.16,84.24 24.13,150.97 39.01,304.72 77.42,452.62 45.56,169.34 94.27,349.61 173.92,507.02 14.64,24.09 38.08,70.5 72.83,68.6 91.05,7.03 182.97,36.66 257.71,91.49 55.75,41.13 99.69,87.49 130.81,149.93 23.98,63.15 34.19,125.23 33.84,192.98 1.03,61.08 10.53,116.04 34.22,172.5 5.16,15.56 11.17,30.72 10.04,47.43 -34.77,3.57 -79.42,-26.06 -111.42,-37.91 -75.69,-25.17 -158.72,-36.23 -236.66,-51.4 -63.38,-10.72 -121.21,-28.88 -173.66,-67.44 -85.92,-60.89 -128.94,-136.09 -161.08,-235.77 -13.65,-56.28 -25.07,-121.31 -21.13,-178.96 l 3.04,-6.64 c 14.55,4.85 39.71,49.21 47.84,62.32 51.31,79.53 101.92,151.51 179.53,210.16 12.83,7.76 86.16,47.93 95.28,28.02 -1.21,-25.96 -43.24,-62.24 -60.03,-83.03 -151.22,-178.3 -239.89,-417.41 -318.92,-634.18 -43.49,-119.96 -70.54,-247.16 -121.64,-363.48 -2.43,-4.23 -6.04,-12.66 -10.61,-14.83 -14.04,13.98 -22.16,47.72 -27.92,66.44 -23.2,82.4 -43.5,167.79 -67.11,250.18 -57.75,217.74 -126.19,472.5 -259.09,658.39 -101.89,134.57 -238.81,287.35 -402.53,345.97 -2.09,-0.04 -6.27,-0.11 -8.36,-0.15 -6.05,-13.07 8.34,-22.85 16.44,-31.91 196.74,-201.09 355.03,-475.62 440.39,-741.8 88.53,-279.1 171.94,-577.1 221.32,-866.07 4.17,-23.36 9.41,-51.82 15.24,-74.72 0,0 53.04,-3.31 77.79,-3.31 24.74,0 78.34,3.31 78.34,3.31"
         style="fill:#008940;fill-opacity:1;fill-rule:evenodd;stroke:none"
         id="path16" /><path
         d="m 3087.43,2597.83 -29.87,-12.06 1.35,-3.35 c 1.09,0.45 2.15,0.22 3.19,-0.67 1.03,-0.91 2.04,-2.56 3.02,-4.96 l 39.84,-98.61 -39.08,-15.8 -25.43,62.94 c -0.92,2.42 -1.23,4.3 -0.95,5.65 0.28,1.36 0.81,2.19 1.59,2.48 l -1.35,3.34 -30.35,-12.27 1.36,-3.34 c 1.08,0.46 2.12,0.27 3.14,-0.56 1,-0.83 1.99,-2.43 2.96,-4.83 l 25.43,-62.95 -37.15,-15.01 -39.16,96.94 c -0.99,2.52 -1.29,4.49 -0.92,5.91 0.37,1.42 1.18,2.36 2.43,2.83 l -1.35,3.35 -30.83,-12.45 1.35,-3.35 c 0.85,0.37 1.76,0.12 2.72,-0.76 0.97,-0.87 1.98,-2.55 3,-5.05 l 52.78,-130.67 3.35,1.35 c -0.74,1.75 -0.79,3.1 -0.15,4.04 0.63,0.94 2.03,1.82 4.19,2.64 l 128.76,52.03 c 2.12,0.9 3.74,1.24 4.85,1 1.1,-0.23 2,-1.23 2.69,-3.02 l 3.35,1.37 -53.48,132.34 c -0.99,2.39 -1.49,4.24 -1.51,5.55 -0.02,1.32 0.5,2.19 1.58,2.61 l -1.35,3.34"
         style="fill:#008940;fill-opacity:1;fill-rule:evenodd;stroke:none"
         id="path18" /><path
         d="m 2916.75,2606.16 3.53,0.76 c -0.54,2.46 -0.4,4.18 0.41,5.13 0.81,0.96 2.29,1.63 4.45,2.01 l 92.09,19.58 c 21.18,4.81 34.38,15.1 39.61,30.86 5.22,15.77 5.08,35.72 -0.44,59.84 -4.78,24.3 -12.76,42.59 -23.95,54.86 -11.18,12.27 -27.43,16.3 -48.74,12.08 l -92.08,-19.57 c -2.14,-0.51 -3.77,-0.49 -4.9,0.06 -1.12,0.53 -1.9,1.86 -2.34,3.98 l -3.53,-0.75 8.81,-41.42 3.53,0.74 c -0.44,2 -0.26,3.45 0.56,4.38 0.81,0.93 2.31,1.6 4.45,2.01 l 93.11,19.8 c 11.15,2.37 19.83,0.07 26.03,-6.91 6.2,-6.97 10.91,-18.49 14.16,-34.55 3.57,-15.98 3.94,-28.42 1.12,-37.31 -2.82,-8.9 -9.82,-14.54 -20.98,-16.89 l -93.09,-19.79 c -2.15,-0.49 -3.77,-0.5 -4.89,-0.04 -1.11,0.46 -1.84,1.57 -2.19,3.32 l -3.54,-0.75 8.81,-41.43"
         style="fill:#008940;fill-opacity:1;fill-rule:evenodd;stroke:none"
         id="path20" /><path
         d="m 2963.2,2944.36 47.82,33.1 c 2.25,1.59 4.49,3.2 6.74,4.83 2.26,1.62 4.12,2.51 5.62,2.67 0.63,-0.03 1.06,-0.28 1.28,-0.73 0.22,-0.46 0.32,-0.9 0.32,-1.33 l 3.6,0.06 -0.83,47.28 -3.6,-0.06 c 0,-1.96 -0.55,-3.76 -1.63,-5.42 -1.09,-1.65 -2.47,-3.09 -4.18,-4.3 l -55.76,-40.47 c -1.71,13.3 -6.6,23.85 -14.64,31.67 -8.05,7.83 -18.16,11.73 -30.3,11.72 -17.71,-0.46 -30.14,-7.19 -37.29,-20.21 -7.15,-13.01 -10.39,-31.42 -9.75,-55.23 l 1.55,-88.37 3.6,0.07 c -0.07,2.28 0.36,3.77 1.29,4.51 0.93,0.73 2.55,1.09 4.86,1.06 l 138.84,2.42 c 2.31,0.12 3.94,-0.19 4.9,-0.89 0.95,-0.69 1.44,-2.18 1.44,-4.46 l 3.61,0.07 -0.73,41.81 -3.61,-0.05 c 0.06,-1.91 -0.37,-3.18 -1.29,-3.83 -0.94,-0.66 -2.56,-0.97 -4.87,-0.97 l -56.18,-0.98 z m -66.26,-47.2 -1.05,60.33 c -0.2,10.97 1.35,19.36 4.66,25.19 3.31,5.82 8.41,8.81 15.3,8.97 6.9,0.36 12.17,-1.5 15.81,-5.57 3.63,-4.06 5.55,-11.71 5.77,-22.92 l 1.13,-65.27 -41.62,-0.73"
         style="fill:#008940;fill-opacity:1;fill-rule:evenodd;stroke:none"
         id="path22" /><path
         d="m 2911.48,3180.53 c 3.43,20.05 11.12,35.31 23.08,45.78 11.96,10.47 26.36,14.53 43.24,12.17 16.77,-2.97 29.22,-11.28 37.35,-24.94 8.14,-13.65 10.74,-30.54 7.81,-50.67 -3.43,-20.05 -11.13,-35.31 -23.08,-45.78 -11.95,-10.47 -26.37,-14.53 -43.23,-12.18 -16.78,2.98 -29.23,11.29 -37.37,24.95 -8.13,13.65 -10.73,30.54 -7.8,50.67 m -25.14,3.98 c -2.86,-19.09 -1.89,-36.41 2.9,-51.98 4.81,-15.56 12.63,-28.38 23.48,-38.44 10.85,-10.05 23.92,-16.36 39.21,-18.93 15.33,-2.29 29.72,-0.32 43.14,5.9 13.42,6.21 24.83,15.97 34.2,29.29 9.38,13.32 15.65,29.51 18.82,48.54 2.86,19.09 1.9,36.42 -2.9,51.98 -4.79,15.57 -12.63,28.38 -23.48,38.43 -10.85,10.06 -23.91,16.38 -39.2,18.94 -15.34,2.29 -29.71,0.32 -43.14,-5.89 -13.43,-6.21 -24.82,-15.98 -34.2,-29.3 -9.37,-13.32 -15.65,-29.5 -18.83,-48.54"
         style="fill:#008940;fill-opacity:1;fill-rule:evenodd;stroke:none"
         id="path24" /><path
         d="m 2961.86,3374.04 19.73,57.3 c 3.12,9.48 6.74,15.59 10.89,18.33 4.13,2.73 9.86,2.75 17.18,0.06 7.43,-2.38 11.94,-5.93 13.51,-10.63 1.57,-4.7 0.67,-11.75 -2.71,-21.14 l -19.72,-57.31 z m 84.79,41.78 c 5.83,17.71 6.1,31.71 0.83,42.01 -5.29,10.29 -14.28,17.52 -27.01,21.69 -15.19,5.15 -27.86,4.6 -37.97,-1.66 -10.1,-6.26 -17.95,-17.61 -23.53,-34.05 l -33.18,-96.37 3.41,-1.17 c 0.67,2.05 1.57,3.24 2.68,3.58 1.11,0.34 2.75,0.11 4.91,-0.69 l 131.31,-45.22 c 2.2,-0.69 3.63,-1.52 4.31,-2.47 0.66,-0.97 0.63,-2.45 -0.1,-4.47 l 3.41,-1.18 13.62,39.55 -3.42,1.18 c -0.62,-1.93 -1.49,-3.05 -2.6,-3.37 -1.11,-0.32 -2.74,-0.08 -4.91,0.72 l -53.62,18.47 21.86,63.45"
         style="fill:#008940;fill-opacity:1;fill-rule:evenodd;stroke:none"
         id="path26" /><path
         d="m 3224.25,3611.23 -28.17,15.62 -1.75,-3.16 c 1.03,-0.56 1.53,-1.52 1.47,-2.9 -0.04,-1.38 -0.69,-3.19 -1.94,-5.46 l -51.57,-93.04 -36.87,20.44 32.91,59.38 c 1.3,2.23 2.57,3.66 3.8,4.29 1.23,0.63 2.21,0.74 2.92,0.31 l 1.75,3.16 -28.62,15.87 -1.75,-3.16 c 1.03,-0.55 1.55,-1.48 1.53,-2.79 -0.01,-1.3 -0.63,-3.09 -1.88,-5.35 l -32.91,-59.37 -35.05,19.43 50.68,91.44 c 1.34,2.35 2.69,3.83 4.01,4.43 1.34,0.6 2.59,0.57 3.74,-0.11 l 1.75,3.16 -29.08,16.12 -1.75,-3.16 c 0.83,-0.42 1.2,-1.29 1.13,-2.59 -0.07,-1.31 -0.76,-3.15 -2.06,-5.52 l -68.31,-123.24 3.16,-1.75 c 0.89,1.68 1.9,2.56 3.04,2.66 1.13,0.09 2.69,-0.43 4.68,-1.59 l 121.46,-67.33 c 2.05,-1.07 3.33,-2.12 3.85,-3.13 0.5,-1.01 0.29,-2.34 -0.66,-3.99 l 3.16,-1.75 69.2,124.85 c 1.24,2.27 2.36,3.83 3.36,4.67 1.01,0.84 2.02,0.98 3.02,0.41 l 1.75,3.15"
         style="fill:#008940;fill-opacity:1;fill-rule:evenodd;stroke:none"
         id="path28" /><path
         d="m 3256.04,3765.69 -32.71,-40.4 -28.3,56.02 z m 6.46,-100.22 -2.81,2.27 c -0.9,-1.12 -1.8,-1.8 -2.72,-2.02 -0.92,-0.22 -1.89,0.07 -2.89,0.88 -0.38,0.22 -0.98,1.09 -1.81,2.62 -0.82,1.51 -2.46,4.63 -4.89,9.35 -2.44,4.72 -6.27,11.99 -11.48,21.82 l 47.11,58.18 c 11.21,-2.93 19.43,-5.05 24.65,-6.35 5.23,-1.3 8.67,-2.2 10.33,-2.7 1.67,-0.51 2.78,-1.03 3.31,-1.55 0.7,-0.58 1.03,-1.24 0.97,-1.96 -0.05,-0.73 -0.41,-1.5 -1.07,-2.31 l 2.8,-2.27 26.67,32.93 -2.8,2.27 c -0.73,-0.89 -1.92,-1.33 -3.57,-1.3 -1.65,0.03 -3.85,0.42 -6.59,1.16 l -144.36,36.61 c -1.24,0.3 -2.35,0.54 -3.35,0.72 -1,0.18 -1.85,0.53 -2.56,1.07 -0.6,0.52 -0.88,1.17 -0.85,1.94 0.03,0.77 0.29,1.48 0.79,2.12 l -2.8,2.27 -28.64,-35.35 2.81,-2.27 c 0.54,0.59 1.2,0.92 1.98,0.99 0.78,0.06 1.39,-0.07 1.84,-0.41 0.79,-0.67 1.43,-1.45 1.91,-2.34 0.49,-0.89 0.95,-1.78 1.39,-2.67 l 64.68,-127.97 c 1.98,-3.59 3.47,-6.44 4.45,-8.58 0.97,-2.14 0.75,-4.2 -0.67,-6.19 l 2.8,-2.27 25.37,31.31"
         style="fill:#008940;fill-opacity:1;fill-rule:evenodd;stroke:none"
         id="path30" /><path
         d="m 3324.68,3911.67 143.74,-17.56 c 1.96,-0.24 3.66,-0.48 5.11,-0.72 1.45,-0.25 2.4,-0.61 2.86,-1.09 0.5,-0.61 0.67,-1.28 0.52,-2.03 -0.16,-0.73 -0.64,-1.45 -1.44,-2.13 l 2.33,-2.76 30.04,25.21 -2.32,2.76 c -1.25,-1.09 -2.43,-1.48 -3.54,-1.18 -1.11,0.3 -2.39,1.34 -3.85,3.12 l -89.27,106.38 c -1.5,1.75 -2.3,3.2 -2.41,4.35 -0.11,1.14 0.49,2.23 1.78,3.28 l -2.32,2.76 -27.66,-23.21 2.32,-2.77 c 1.16,1.02 2.28,1.37 3.37,1.05 1.09,-0.32 2.37,-1.37 3.84,-3.15 l 65.02,-77.5 -135.75,16.12 c -1.55,0.16 -2.89,0.27 -4,0.33 -1.12,0.05 -2.02,0.45 -2.7,1.18 -0.56,0.69 -0.78,1.32 -0.64,1.88 0.14,0.56 0.52,1.09 1.13,1.59 l -2.31,2.76 -33.84,-28.4 2.31,-2.76 c 1.17,1.02 2.29,1.37 3.37,1.04 1.1,-0.31 2.37,-1.36 3.83,-3.14 l 89.27,-106.38 c 1.5,-1.75 2.31,-3.2 2.44,-4.32 0.13,-1.13 -0.42,-2.17 -1.61,-3.14 l 2.31,-2.76 27.06,22.71 -2.31,2.76 c -0.97,-0.85 -1.97,-1.11 -3.02,-0.75 -1.04,0.35 -2.3,1.42 -3.79,3.19 l -69.87,83.28"
         style="fill:#008940;fill-opacity:1;fill-rule:evenodd;stroke:none"
         id="path32" /><path
         d="m 3684.28,4191.5 1.52,-3.27 c 0.98,0.46 1.94,0.68 2.86,0.65 0.92,-0.03 1.6,-0.45 2.02,-1.25 0.41,-1.34 0.69,-5.82 0.85,-13.44 0.15,-7.63 0.34,-16.03 0.53,-25.22 l 2.24,-84.75 -64.43,55.75 c -9.55,8.11 -16.78,14.19 -21.7,18.24 -4.93,4.07 -7.59,6.47 -7.96,7.24 -0.36,0.83 -0.29,1.59 0.24,2.3 0.53,0.71 1.34,1.31 2.42,1.81 l -1.52,3.27 -40.53,-18.89 1.53,-3.27 c 2.55,1.04 4.66,1.02 6.34,-0.06 1.67,-1.09 3.18,-2.25 4.5,-3.5 l 112.88,-96.29 c 0.96,-0.77 1.93,-1.6 2.88,-2.49 0.96,-0.89 1.54,-1.54 1.77,-1.94 0.32,-0.6 0.38,-1.22 0.19,-1.88 -0.18,-0.66 -0.91,-1.29 -2.16,-1.91 l 1.53,-3.26 38.63,18.01 -1.52,3.27 c -1.34,-0.49 -2.41,-0.69 -3.2,-0.59 -0.79,0.09 -1.35,0.49 -1.67,1.19 -0.36,0.79 -0.56,1.64 -0.61,2.55 -0.05,0.9 -0.11,2.04 -0.16,3.4 l -3.91,147.39 c -0.1,2.44 0.19,4.63 0.89,6.55 0.71,1.93 1.83,3.27 3.35,4.04 l -1.52,3.27 -36.28,-16.92"
         style="fill:#008940;fill-opacity:1;fill-rule:evenodd;stroke:none"
         id="path34" /><path
         d="m 3970.96,4113.4 -8.34,31.11 -3.48,-0.93 c 0.32,-1.14 -0.04,-2.16 -1.06,-3.08 -1.03,-0.92 -2.78,-1.72 -5.28,-2.39 l -102.75,-27.53 -10.91,40.71 65.58,17.57 c 2.5,0.61 4.41,0.7 5.72,0.25 1.31,-0.44 2.06,-1.07 2.26,-1.88 l 3.47,0.93 -8.46,31.62 -3.49,-0.94 c 0.32,-1.12 0.02,-2.14 -0.94,-3.04 -0.94,-0.9 -2.66,-1.69 -5.15,-2.36 l -65.58,-17.57 -10.37,38.71 100.99,27.06 c 2.62,0.67 4.61,0.72 5.97,0.19 1.37,-0.55 2.21,-1.47 2.52,-2.76 l 3.49,0.93 -8.6,32.12 -3.49,-0.94 c 0.26,-0.89 -0.1,-1.75 -1.08,-2.61 -0.99,-0.85 -2.79,-1.63 -5.4,-2.35 l -136.11,-36.47 0.93,-3.49 c 1.83,0.52 3.17,0.41 4.03,-0.33 0.85,-0.75 1.56,-2.25 2.11,-4.48 l 35.94,-134.14 c 0.64,-2.22 0.78,-3.87 0.42,-4.94 -0.37,-1.08 -1.48,-1.84 -3.32,-2.3 l 0.93,-3.49 137.88,36.95 c 2.49,0.68 4.39,0.95 5.7,0.82 1.3,-0.14 2.1,-0.77 2.38,-1.89 l 3.49,0.94"
         style="fill:#008940;fill-opacity:1;fill-rule:evenodd;stroke:none"
         id="path36" /><path
         d="m 4142.34,4169.47 c -3.02,-2.5 -8.72,-5.18 -17.13,-8.03 -8.4,-2.84 -17.44,-4.77 -27.11,-5.76 -19.82,-1.74 -36.39,1.52 -49.72,9.78 -13.33,8.26 -21.02,21.75 -23.06,40.49 -0.89,12.05 1.26,22.51 6.44,31.38 5.18,8.87 12.43,15.91 21.73,21.12 9.31,5.2 19.7,8.32 31.17,9.35 11.12,0.8 20.76,0.25 28.94,-1.65 8.17,-1.89 14.52,-4.12 19.04,-6.68 4.52,-2.56 6.87,-4.44 7.01,-5.65 0.07,-0.89 0.08,-1.57 0.02,-2.05 -0.06,-0.48 -0.15,-0.85 -0.26,-1.1 l 3.23,-1.55 15.62,36.31 -4.03,1.21 c -0.96,-0.91 -1.96,-1.43 -2.99,-1.56 -0.96,0 -3.2,0.55 -6.7,1.66 -3.51,1.11 -7.95,2.32 -13.33,3.63 -5.6,1.41 -12.34,2.44 -20.23,3.13 -7.89,0.68 -16.88,0.6 -26.99,-0.21 -17.98,-1.61 -33.9,-6.18 -47.73,-13.71 -13.84,-7.54 -24.47,-17.73 -31.87,-30.59 -7.4,-12.86 -10.43,-28.08 -9.08,-45.67 1.79,-18.52 7.27,-33.46 16.46,-44.81 9.18,-11.34 21.06,-19.34 35.63,-23.98 14.58,-4.64 30.84,-6.16 48.81,-4.57 16.06,1.46 30.98,4.94 44.74,10.43 13.76,5.5 25.49,12.61 35.18,21.33 l -0.31,3.62 c -1.08,0.39 -1.86,0.93 -2.37,1.6 -0.5,0.66 -0.81,1.7 -0.91,3.08 l -3.79,43.26 c -0.19,2.02 -0.1,3.44 0.27,4.3 0.37,0.85 1.05,1.48 2.05,1.9 l -0.31,3.62 -71.22,-6.23 c -2.1,-0.15 -3.78,0.1 -5.03,0.74 -1.25,0.64 -1.94,1.49 -2.05,2.56 l -3.6,-0.31 2.97,-33.91 3.6,0.31 c -0.08,1.11 0.44,2.2 1.54,3.27 1.09,1.08 2.69,1.74 4.78,1.99 l 38.36,3.36 2.23,-25.41"
         style="fill:#008940;fill-opacity:1;fill-rule:evenodd;stroke:none"
         id="path38" /><path
         d="m 4376.9,4124.14 2.8,32.08 -3.59,0.32 c -0.09,-1.17 -0.77,-2.01 -2.05,-2.53 -1.27,-0.51 -3.2,-0.66 -5.78,-0.44 l -105.97,9.28 3.68,41.98 67.63,-5.91 c 2.57,-0.28 4.38,-0.85 5.46,-1.72 1.08,-0.87 1.57,-1.72 1.48,-2.55 l 3.6,-0.31 2.85,32.61 -3.6,0.31 c -0.08,-1.17 -0.72,-2.02 -1.92,-2.54 -1.2,-0.52 -3.09,-0.67 -5.65,-0.45 l -67.63,5.91 3.48,39.92 104.17,-9.11 c 2.68,-0.27 4.58,-0.89 5.67,-1.86 1.09,-0.98 1.57,-2.13 1.42,-3.46 l 3.6,-0.31 2.9,33.12 -3.59,0.31 c -0.06,-0.92 -0.7,-1.62 -1.92,-2.08 -1.22,-0.47 -3.17,-0.59 -5.87,-0.37 l -140.38,12.29 -0.31,-3.6 c 1.89,-0.13 3.11,-0.69 3.66,-1.69 0.55,-0.99 0.7,-2.64 0.45,-4.93 l -12.1,-138.35 c -0.16,-2.3 -0.59,-3.89 -1.3,-4.77 -0.71,-0.89 -2.02,-1.23 -3.9,-1.03 l -0.33,-3.6 142.2,-12.44 c 2.59,-0.21 4.46,-0.6 5.64,-1.18 1.19,-0.58 1.71,-1.44 1.61,-2.58 l 3.59,-0.32"
         style="fill:#008940;fill-opacity:1;fill-rule:evenodd;stroke:none"
         id="path40" /><path
         d="m 4508.96,4101.45 c -2.1,0.49 -3.41,1.28 -3.93,2.38 -0.5,1.11 -0.46,2.77 0.14,4.99 l 29.83,119.61 49.98,-12.46 c 2.51,-0.59 4.26,-1.23 5.28,-1.92 1.01,-0.69 1.36,-1.64 1.02,-2.87 l 3.5,-0.87 7.68,30.74 -3.51,0.88 c -0.25,-1.12 -1,-1.78 -2.23,-1.95 -1.23,-0.19 -3.09,0.04 -5.59,0.68 l -130.71,32.59 c -2.5,0.61 -4.25,1.28 -5.25,2.02 -1,0.73 -1.36,1.66 -1.05,2.77 l -3.49,0.87 -7.69,-30.74 3.51,-0.88 c 0.28,1.24 1.04,1.92 2.26,2.06 1.21,0.13 3.06,-0.14 5.56,-0.79 l 49.98,-12.46 -29.82,-119.61 c -0.5,-2.25 -1.2,-3.75 -2.09,-4.5 -0.9,-0.75 -2.39,-0.85 -4.47,-0.3 l -0.87,-3.5 41.09,-10.25 0.87,3.51"
         style="fill:#008940;fill-opacity:1;fill-rule:evenodd;stroke:none"
         id="path42" /><path
         d="m 4708.81,4101 -48.2,19.48 45.3,43.42 z m -93.96,-35.47 1.36,3.34 c -1.34,0.53 -2.24,1.2 -2.73,2.02 -0.48,0.81 -0.48,1.82 0,3.02 0.1,0.42 0.76,1.25 1.97,2.49 1.21,1.23 3.71,3.7 7.51,7.42 3.8,3.71 9.64,9.49 17.51,17.35 l 69.41,-28.05 c 0.48,-11.57 0.86,-20.05 1.15,-25.42 0.28,-5.38 0.42,-8.94 0.43,-10.67 0.01,-1.75 -0.17,-2.95 -0.52,-3.63 -0.35,-0.83 -0.88,-1.33 -1.58,-1.49 -0.72,-0.17 -1.56,-0.05 -2.52,0.35 l -1.36,-3.34 39.29,-15.88 1.35,3.35 c -1.06,0.43 -1.82,1.44 -2.28,3.02 -0.46,1.59 -0.73,3.81 -0.82,6.65 l -7.2,148.75 c -0.08,1.27 -0.17,2.41 -0.29,3.42 -0.12,1 -0.03,1.92 0.27,2.76 0.32,0.72 0.86,1.18 1.61,1.38 0.75,0.2 1.5,0.15 2.26,-0.14 l 1.35,3.35 -42.18,17.04 -1.35,-3.35 c 0.72,-0.34 1.23,-0.87 1.53,-1.6 0.29,-0.72 0.34,-1.35 0.14,-1.88 -0.41,-0.95 -0.97,-1.79 -1.68,-2.51 -0.7,-0.73 -1.42,-1.43 -2.15,-2.11 l -103.45,-99.27 c -2.86,-2.95 -5.16,-5.2 -6.92,-6.75 -1.75,-1.56 -3.79,-1.95 -6.11,-1.18 l -1.35,-3.35 37.35,-15.09"
         style="fill:#008940;fill-opacity:1;fill-rule:evenodd;stroke:none"
         id="path44" /><path
         d="m 4881.9,4004.48 0.69,-58.14 c 0.07,-2.76 0.15,-5.52 0.24,-8.3 0.09,-2.77 -0.22,-4.82 -0.93,-6.14 -0.38,-0.52 -0.82,-0.73 -1.32,-0.66 -0.5,0.08 -0.93,0.23 -1.28,0.48 l -1.96,-3.02 39.66,-25.76 1.97,3.02 c -1.63,1.11 -2.82,2.56 -3.58,4.39 -0.78,1.82 -1.19,3.78 -1.22,5.87 l -2.39,68.86 c 11.99,-6.02 23.47,-7.88 34.46,-5.58 10.98,2.3 19.86,8.49 26.65,18.56 9.52,14.95 10.89,29.02 4.1,42.22 -6.8,13.2 -20.24,26.19 -40.33,38.97 l -74.14,48.14 -1.96,-3.03 c 1.93,-1.21 2.93,-2.41 3.02,-3.59 0.09,-1.18 -0.53,-2.72 -1.84,-4.62 l -75.63,-116.46 c -1.2,-1.97 -2.36,-3.16 -3.48,-3.56 -1.11,-0.4 -2.61,0.03 -4.5,1.3 l -1.96,-3.03 35.08,-22.78 1.96,3.03 c -1.61,1 -2.42,2.08 -2.44,3.21 -0.02,1.14 0.61,2.66 1.91,4.57 l 30.61,47.13 z m -2.08,81.33 50.61,-32.86 c 9.19,-5.97 15.29,-11.96 18.27,-17.95 2.98,-6 2.6,-11.91 -1.12,-17.71 -3.57,-5.92 -8.05,-9.25 -13.45,-9.99 -5.41,-0.73 -12.82,1.95 -22.23,8.04 l -54.76,35.56 22.68,34.91"
         style="fill:#008940;fill-opacity:1;fill-rule:evenodd;stroke:none"
         id="path46" /><path
         d="m 5071,3964.73 c 1.44,1.82 2.78,2.8 4.06,2.96 1.27,0.17 2.92,-0.62 4.93,-2.35 l 2.33,2.76 -34.84,29.22 -2.31,-2.76 c 2.43,-2 3.69,-3.65 3.78,-4.95 0.08,-1.31 -0.66,-2.81 -2.22,-4.51 l -89.27,-106.38 c -1.4,-1.83 -2.75,-2.82 -4.05,-2.96 -1.3,-0.14 -3.14,0.82 -5.54,2.86 l -2.31,-2.76 34.83,-29.23 2.32,2.76 c -2.06,1.69 -3.12,3.17 -3.18,4.45 -0.06,1.29 0.67,2.79 2.21,4.51 l 89.26,106.38"
         style="fill:#008940;fill-opacity:1;fill-rule:evenodd;stroke:none"
         id="path48" /><path
         d="m 5133.14,3790.95 -35.46,38.02 59.41,20.21 z m -100.15,7.56 2.64,2.46 c -0.99,1.04 -1.52,2.03 -1.61,2.97 -0.1,0.95 0.32,1.86 1.27,2.74 0.27,0.34 1.21,0.82 2.84,1.43 1.61,0.6 4.93,1.79 9.94,3.54 5.01,1.76 12.75,4.54 23.2,8.33 l 51.06,-54.75 c -4.46,-10.7 -7.7,-18.54 -9.72,-23.53 -2.01,-4.99 -3.39,-8.27 -4.12,-9.85 -0.72,-1.58 -1.39,-2.6 -1.99,-3.06 -0.66,-0.61 -1.36,-0.84 -2.07,-0.69 -0.71,0.15 -1.43,0.61 -2.14,1.39 l -2.64,-2.47 28.9,-30.99 2.64,2.46 c -0.78,0.84 -1.05,2.08 -0.78,3.71 0.25,1.63 0.93,3.75 2.06,6.37 l 56.34,137.85 c 0.46,1.19 0.85,2.26 1.18,3.22 0.31,0.97 0.79,1.76 1.41,2.39 0.61,0.52 1.28,0.71 2.04,0.58 0.76,-0.14 1.43,-0.5 1.99,-1.08 l 2.64,2.46 -31.02,33.26 -2.64,-2.45 c 0.51,-0.62 0.75,-1.32 0.7,-2.1 -0.04,-0.78 -0.26,-1.37 -0.65,-1.77 -0.78,-0.68 -1.64,-1.21 -2.58,-1.57 -0.96,-0.35 -1.9,-0.69 -2.85,-1 l -135.72,-46.24 c -3.82,-1.46 -6.86,-2.53 -9.12,-3.2 -2.24,-0.68 -4.25,-0.17 -6.03,1.51 l -2.65,-2.45 27.48,-29.47"
         style="fill:#008940;fill-opacity:1;fill-rule:evenodd;stroke:none"
         id="path50" /><path
         d="m 5268.92,3703.22 -37.39,-139.91 c -0.51,-1.9 -0.99,-3.55 -1.43,-4.95 -0.44,-1.4 -0.94,-2.29 -1.46,-2.68 -0.69,-0.41 -1.38,-0.49 -2.09,-0.23 -0.71,0.26 -1.35,0.83 -1.92,1.72 l -3.05,-1.91 20.79,-33.28 3.05,1.92 c -0.9,1.4 -1.14,2.62 -0.68,3.67 0.45,1.06 1.66,2.19 3.63,3.38 l 117.77,73.59 c 1.94,1.25 3.49,1.84 4.64,1.79 1.14,-0.06 2.14,-0.8 2.99,-2.23 l 3.07,1.92 -19.14,30.62 -3.06,-1.91 c 0.84,-1.29 1.03,-2.45 0.57,-3.49 -0.47,-1.03 -1.69,-2.15 -3.65,-3.35 l -85.79,-53.61 34.86,132.19 c 0.36,1.51 0.65,2.82 0.87,3.92 0.21,1.1 0.72,1.94 1.54,2.5 0.76,0.46 1.42,0.59 1.95,0.37 0.54,-0.21 1.01,-0.66 1.41,-1.34 l 3.07,1.91 -23.41,37.46 -3.07,-1.91 c 0.85,-1.29 1.04,-2.44 0.57,-3.48 -0.47,-1.03 -1.68,-2.15 -3.65,-3.35 l -117.77,-73.59 c -1.94,-1.24 -3.48,-1.85 -4.62,-1.81 -1.13,0.03 -2.09,0.7 -2.88,2.03 l -3.05,-1.91 18.72,-29.96 3.05,1.91 c -0.71,1.08 -0.82,2.11 -0.32,3.09 0.5,0.99 1.73,2.09 3.69,3.3 l 92.19,57.61"
         style="fill:#008940;fill-opacity:1;fill-rule:evenodd;stroke:none"
         id="path52" /><path
         d="m 5461.14,3422.7 -3.45,-1.05 c 0.75,-2.41 0.76,-4.13 0.04,-5.16 -0.72,-1.02 -2.15,-1.82 -4.27,-2.39 l -90.03,-27.52 c -20.67,-6.64 -32.92,-18.04 -36.76,-34.2 -3.83,-16.16 -1.95,-36.02 5.65,-59.58 6.88,-23.78 16.42,-41.3 28.63,-52.55 12.21,-11.26 28.75,-13.86 49.6,-7.79 l 90.03,27.52 c 2.09,0.68 3.71,0.81 4.89,0.37 1.17,-0.44 2.07,-1.7 2.68,-3.77 l 3.45,1.05 -12.38,40.5 -3.45,-1.05 c 0.61,-1.95 0.56,-3.41 -0.19,-4.41 -0.73,-1 -2.15,-1.79 -4.25,-2.39 l -91.03,-27.83 c -10.91,-3.34 -19.75,-1.81 -26.53,4.61 -6.78,6.41 -12.48,17.47 -17.11,33.18 -4.95,15.61 -6.41,27.97 -4.37,37.08 2.03,9.11 8.51,15.33 19.42,18.65 l 91.02,27.83 c 2.09,0.67 3.71,0.82 4.86,0.46 1.15,-0.36 1.97,-1.4 2.48,-3.11 l 3.44,1.05 -12.37,40.5"
         style="fill:#008940;fill-opacity:1;fill-rule:evenodd;stroke:none"
         id="path54" /><path
         d="M 5489.84,3134.61 5393,3026.93 c -1.31,-1.47 -2.49,-2.72 -3.51,-3.77 -1.04,-1.05 -1.88,-1.62 -2.53,-1.72 -0.79,-0.06 -1.45,0.19 -1.96,0.74 -0.51,0.56 -0.82,1.36 -0.92,2.41 l -3.6,-0.32 3.42,-39.08 3.6,0.31 c -0.18,1.65 0.17,2.85 1.05,3.59 0.88,0.73 2.47,1.18 4.78,1.36 l 138.34,12.1 c 2.29,0.23 3.94,0.06 4.94,-0.51 0.99,-0.57 1.55,-1.69 1.66,-3.34 l 3.59,0.31 -3.14,35.97 -3.6,-0.32 c 0.17,-1.52 -0.19,-2.64 -1.07,-3.36 -0.89,-0.7 -2.48,-1.15 -4.79,-1.32 l -100.77,-8.82 91.06,101.95 c 1.02,1.18 1.88,2.21 2.58,3.1 0.68,0.89 1.52,1.39 2.5,1.52 0.89,0.07 1.53,-0.11 1.91,-0.55 0.38,-0.43 0.59,-1.04 0.64,-1.83 l 3.6,0.31 -3.85,44 -3.59,-0.31 c 0.16,-1.53 -0.2,-2.65 -1.08,-3.36 -0.89,-0.7 -2.47,-1.15 -4.77,-1.33 l -138.35,-12.1 c -2.3,-0.22 -3.94,-0.06 -4.93,0.48 -1,0.54 -1.55,1.58 -1.65,3.12 l -3.6,-0.31 3.09,-35.2 3.59,0.31 c -0.15,1.29 0.23,2.26 1.11,2.91 0.89,0.66 2.49,1.08 4.79,1.27 l 108.3,9.47"
         style="fill:#008940;fill-opacity:1;fill-rule:evenodd;stroke:none"
         id="path56" /><path
         d="m 5528.5,2890.91 c 2.31,-0.02 3.93,-0.47 4.83,-1.38 0.91,-0.91 1.31,-2.68 1.19,-5.34 l 3.61,-0.13 1.57,45.44 -3.6,0.13 c -0.08,-3.13 -0.61,-5.16 -1.57,-6.02 -0.98,-0.86 -2.62,-1.22 -4.92,-1.04 l -138.79,4.85 c -2.3,-0.03 -3.91,0.44 -4.83,1.37 -0.91,0.94 -1.29,2.98 -1.15,6.12 l -3.61,0.13 -1.58,-45.44 3.61,-0.13 c 0.05,2.67 0.57,4.41 1.55,5.25 0.97,0.84 2.61,1.19 4.91,1.03 l 138.78,-4.84"
         style="fill:#008940;fill-opacity:1;fill-rule:evenodd;stroke:none"
         id="path58" /><path
         d="m 5498.03,2733.7 c -3.44,-20.04 -11.13,-35.3 -23.09,-45.77 -11.95,-10.48 -26.36,-14.53 -43.23,-12.18 -16.78,2.97 -29.23,11.29 -37.36,24.94 -8.14,13.65 -10.73,30.55 -7.8,50.68 3.43,20.04 11.13,35.3 23.08,45.77 11.95,10.48 26.37,14.53 43.23,12.18 16.77,-2.97 29.23,-11.28 37.35,-24.95 8.14,-13.65 10.75,-30.53 7.82,-50.67 m 25.14,-3.97 c 2.87,19.09 1.89,36.41 -2.91,51.98 -4.8,15.56 -12.62,28.37 -23.47,38.43 -10.85,10.05 -23.92,16.38 -39.21,18.93 -15.33,2.29 -29.72,0.33 -43.14,-5.88 -13.43,-6.22 -24.83,-15.98 -34.2,-29.3 -9.38,-13.32 -15.65,-29.51 -18.83,-48.55 -2.86,-19.08 -1.9,-36.41 2.91,-51.97 4.79,-15.57 12.62,-28.38 23.47,-38.44 10.85,-10.06 23.91,-16.37 39.2,-18.94 15.34,-2.28 29.72,-0.31 43.15,5.89 13.42,6.21 24.82,15.98 34.2,29.3 9.37,13.32 15.64,29.51 18.83,48.55"
         style="fill:#008940;fill-opacity:1;fill-rule:evenodd;stroke:none"
         id="path60" /><path
         d="m 5431.75,2544.12 -134.23,-54.34 c -1.83,-0.73 -3.44,-1.34 -4.82,-1.84 -1.38,-0.49 -2.4,-0.64 -3.02,-0.44 -0.74,0.29 -1.22,0.81 -1.44,1.53 -0.22,0.72 -0.15,1.57 0.22,2.56 l -3.37,1.29 -14.05,-36.62 3.36,-1.29 c 0.56,1.56 1.4,2.48 2.52,2.75 1.12,0.28 2.75,-0.02 4.89,-0.87 l 129.65,-49.76 c 2.16,-0.8 3.56,-1.68 4.21,-2.63 0.64,-0.95 0.66,-2.2 0.03,-3.73 l 3.36,-1.29 12.94,33.7 -3.37,1.3 c -0.5,-1.45 -1.32,-2.3 -2.43,-2.55 -1.11,-0.25 -2.73,0.05 -4.88,0.89 l -94.44,36.26 126.54,51.71 c 1.44,0.62 2.66,1.18 3.66,1.66 1.01,0.5 1.98,0.59 2.93,0.27 0.83,-0.33 1.32,-0.76 1.48,-1.32 0.14,-0.57 0.07,-1.21 -0.23,-1.93 l 3.37,-1.31 15.83,41.24 -3.37,1.29 c -0.53,-1.44 -1.34,-2.29 -2.44,-2.54 -1.1,-0.25 -2.73,0.06 -4.86,0.91 l -129.66,49.76 c -2.16,0.8 -3.58,1.67 -4.23,2.6 -0.65,0.91 -0.69,2.09 -0.11,3.51 l -3.37,1.3 -12.65,-32.98 3.36,-1.29 c 0.44,1.21 1.19,1.92 2.28,2.11 1.09,0.2 2.7,-0.12 4.86,-0.95 l 101.48,-38.96"
         style="fill:#008940;fill-opacity:1;fill-rule:evenodd;stroke:none"
         id="path62" /><path
         d="m 3171.2,2300.4 c 19.57,0 35.43,-15.87 35.43,-35.44 0,-19.57 -15.86,-35.43 -35.43,-35.43 -19.57,0 -35.44,15.86 -35.44,35.43 0,19.57 15.87,35.44 35.44,35.44"
         style="fill:#008940;fill-opacity:1;fill-rule:evenodd;stroke:none"
         id="path64" /><path
         d="m 5236.88,2301.98 c 19.57,0 35.44,-15.86 35.44,-35.43 0,-19.57 -15.87,-35.44 -35.44,-35.44 -19.56,0 -35.43,15.87 -35.43,35.44 0,19.57 15.87,35.43 35.43,35.43"
         style="fill:#008940;fill-opacity:1;fill-rule:evenodd;stroke:none"
         id="path66" /><path
         d="m 3087.43,2597.83 -29.87,-12.06 1.35,-3.35 c 1.09,0.45 2.15,0.22 3.19,-0.67 1.03,-0.91 2.04,-2.56 3.02,-4.96 l 39.84,-98.61 -39.08,-15.8 -25.43,62.94 c -0.92,2.42 -1.23,4.3 -0.95,5.65 0.28,1.36 0.81,2.19 1.59,2.48 l -1.35,3.34 -30.35,-12.27 1.36,-3.34 c 1.08,0.46 2.12,0.27 3.14,-0.56 1,-0.83 1.99,-2.43 2.96,-4.83 l 25.43,-62.95 -37.15,-15.01 -39.16,96.94 c -0.99,2.52 -1.29,4.49 -0.92,5.91 0.37,1.42 1.18,2.36 2.43,2.83 l -1.35,3.35 -30.83,-12.45 1.35,-3.35 c 0.85,0.37 1.76,0.12 2.72,-0.76 0.97,-0.87 1.98,-2.55 3,-5.05 l 52.78,-130.67 3.35,1.35 c -0.74,1.75 -0.79,3.1 -0.15,4.04 0.63,0.94 2.03,1.82 4.19,2.64 l 128.76,52.03 c 2.12,0.9 3.74,1.24 4.85,1 1.1,-0.23 2,-1.23 2.69,-3.02 l 3.35,1.37 -53.48,132.34 c -0.99,2.39 -1.49,4.24 -1.51,5.55 -0.02,1.32 0.5,2.19 1.58,2.61 l -1.35,3.34"
         style="fill:#008940;fill-opacity:1;fill-rule:evenodd;stroke:none"
         id="path68" /><path
         d="m 2916.75,2606.16 3.53,0.76 c -0.54,2.46 -0.4,4.18 0.41,5.13 0.81,0.96 2.29,1.63 4.45,2.01 l 92.09,19.58 c 21.18,4.81 34.38,15.1 39.61,30.86 5.22,15.77 5.08,35.72 -0.44,59.84 -4.78,24.3 -12.76,42.59 -23.95,54.86 -11.18,12.27 -27.43,16.3 -48.74,12.08 l -92.08,-19.57 c -2.14,-0.51 -3.77,-0.49 -4.9,0.06 -1.12,0.53 -1.9,1.86 -2.34,3.98 l -3.53,-0.75 8.81,-41.42 3.53,0.74 c -0.44,2 -0.26,3.45 0.56,4.38 0.81,0.93 2.31,1.6 4.45,2.01 l 93.11,19.8 c 11.15,2.37 19.83,0.07 26.03,-6.91 6.2,-6.97 10.91,-18.49 14.16,-34.55 3.57,-15.98 3.94,-28.42 1.12,-37.31 -2.82,-8.9 -9.82,-14.54 -20.98,-16.89 l -93.09,-19.79 c -2.15,-0.49 -3.77,-0.5 -4.89,-0.04 -1.11,0.46 -1.84,1.57 -2.19,3.32 l -3.54,-0.75 8.81,-41.43"
         style="fill:#008940;fill-opacity:1;fill-rule:evenodd;stroke:none"
         id="path70" /><path
         d="m 2963.2,2944.36 47.82,33.1 c 2.25,1.59 4.49,3.2 6.74,4.83 2.26,1.62 4.12,2.51 5.62,2.67 0.63,-0.03 1.06,-0.28 1.28,-0.73 0.22,-0.46 0.32,-0.9 0.32,-1.33 l 3.6,0.06 -0.83,47.28 -3.6,-0.06 c 0,-1.96 -0.55,-3.76 -1.63,-5.42 -1.09,-1.65 -2.47,-3.09 -4.18,-4.3 l -55.76,-40.47 c -1.71,13.3 -6.6,23.85 -14.64,31.67 -8.05,7.83 -18.16,11.73 -30.3,11.72 -17.71,-0.46 -30.14,-7.19 -37.29,-20.21 -7.15,-13.01 -10.39,-31.42 -9.75,-55.23 l 1.55,-88.37 3.6,0.07 c -0.07,2.28 0.36,3.77 1.29,4.51 0.93,0.73 2.55,1.09 4.86,1.06 l 138.84,2.42 c 2.31,0.12 3.94,-0.19 4.9,-0.89 0.95,-0.69 1.44,-2.18 1.44,-4.46 l 3.61,0.07 -0.73,41.81 -3.61,-0.05 c 0.06,-1.91 -0.37,-3.18 -1.29,-3.83 -0.94,-0.66 -2.56,-0.97 -4.87,-0.97 l -56.18,-0.98 z m -66.26,-47.2 -1.05,60.33 c -0.2,10.97 1.35,19.36 4.66,25.19 3.31,5.82 8.41,8.81 15.3,8.97 6.9,0.36 12.17,-1.5 15.81,-5.57 3.63,-4.06 5.55,-11.71 5.77,-22.92 l 1.13,-65.27 -41.62,-0.73"
         style="fill:#008940;fill-opacity:1;fill-rule:evenodd;stroke:none"
         id="path72" /><path
         d="m 2911.48,3180.53 c 3.43,20.05 11.12,35.31 23.08,45.78 11.96,10.47 26.36,14.53 43.24,12.17 16.77,-2.97 29.22,-11.28 37.35,-24.94 8.14,-13.65 10.74,-30.54 7.81,-50.67 -3.43,-20.05 -11.13,-35.31 -23.08,-45.78 -11.95,-10.47 -26.37,-14.53 -43.23,-12.18 -16.78,2.98 -29.23,11.29 -37.37,24.95 -8.13,13.65 -10.73,30.54 -7.8,50.67 m -25.14,3.98 c -2.86,-19.09 -1.89,-36.41 2.9,-51.98 4.81,-15.56 12.63,-28.38 23.48,-38.44 10.85,-10.05 23.92,-16.36 39.21,-18.93 15.33,-2.29 29.72,-0.32 43.14,5.9 13.42,6.21 24.83,15.97 34.2,29.29 9.38,13.32 15.65,29.51 18.82,48.54 2.86,19.09 1.9,36.42 -2.9,51.98 -4.79,15.57 -12.63,28.38 -23.48,38.43 -10.85,10.06 -23.91,16.38 -39.2,18.94 -15.34,2.29 -29.71,0.32 -43.14,-5.89 -13.43,-6.21 -24.82,-15.98 -34.2,-29.3 -9.37,-13.32 -15.65,-29.5 -18.83,-48.54"
         style="fill:#008940;fill-opacity:1;fill-rule:evenodd;stroke:none"
         id="path74" /><path
         d="m 2961.86,3374.04 19.73,57.3 c 3.12,9.48 6.74,15.59 10.89,18.33 4.13,2.73 9.86,2.75 17.18,0.06 7.43,-2.38 11.94,-5.93 13.51,-10.63 1.57,-4.7 0.67,-11.75 -2.71,-21.14 l -19.72,-57.31 z m 84.79,41.78 c 5.83,17.71 6.1,31.71 0.83,42.01 -5.29,10.29 -14.28,17.52 -27.01,21.69 -15.19,5.15 -27.86,4.6 -37.97,-1.66 -10.1,-6.26 -17.95,-17.61 -23.53,-34.05 l -33.18,-96.37 3.41,-1.17 c 0.67,2.05 1.57,3.24 2.68,3.58 1.11,0.34 2.75,0.11 4.91,-0.69 l 131.31,-45.22 c 2.2,-0.69 3.63,-1.52 4.31,-2.47 0.66,-0.97 0.63,-2.45 -0.1,-4.47 l 3.41,-1.18 13.62,39.55 -3.42,1.18 c -0.62,-1.93 -1.49,-3.05 -2.6,-3.37 -1.11,-0.32 -2.74,-0.08 -4.91,0.72 l -53.62,18.47 21.86,63.45"
         style="fill:#008940;fill-opacity:1;fill-rule:evenodd;stroke:none"
         id="path76" /><path
         d="m 3224.25,3611.23 -28.17,15.62 -1.75,-3.16 c 1.03,-0.56 1.53,-1.52 1.47,-2.9 -0.04,-1.38 -0.69,-3.19 -1.94,-5.46 l -51.57,-93.04 -36.87,20.44 32.91,59.38 c 1.3,2.23 2.57,3.66 3.8,4.29 1.23,0.63 2.21,0.74 2.92,0.31 l 1.75,3.16 -28.62,15.87 -1.75,-3.16 c 1.03,-0.55 1.55,-1.48 1.53,-2.79 -0.01,-1.3 -0.63,-3.09 -1.88,-5.35 l -32.91,-59.37 -35.05,19.43 50.68,91.44 c 1.34,2.35 2.69,3.83 4.01,4.43 1.34,0.6 2.59,0.57 3.74,-0.11 l 1.75,3.16 -29.08,16.12 -1.75,-3.16 c 0.83,-0.42 1.2,-1.29 1.13,-2.59 -0.07,-1.31 -0.76,-3.15 -2.06,-5.52 l -68.31,-123.24 3.16,-1.75 c 0.89,1.68 1.9,2.56 3.04,2.66 1.13,0.09 2.69,-0.43 4.68,-1.59 l 121.46,-67.33 c 2.05,-1.07 3.33,-2.12 3.85,-3.13 0.5,-1.01 0.29,-2.34 -0.66,-3.99 l 3.16,-1.75 69.2,124.85 c 1.24,2.27 2.36,3.83 3.36,4.67 1.01,0.84 2.02,0.98 3.02,0.41 l 1.75,3.15"
         style="fill:#008940;fill-opacity:1;fill-rule:evenodd;stroke:none"
         id="path78" /><path
         d="m 3256.04,3765.69 -32.71,-40.4 -28.3,56.02 z m 6.46,-100.22 -2.81,2.27 c -0.9,-1.12 -1.8,-1.8 -2.72,-2.02 -0.92,-0.22 -1.89,0.07 -2.89,0.88 -0.38,0.22 -0.98,1.09 -1.81,2.62 -0.82,1.51 -2.46,4.63 -4.89,9.35 -2.44,4.72 -6.27,11.99 -11.48,21.82 l 47.11,58.18 c 11.21,-2.93 19.43,-5.05 24.65,-6.35 5.23,-1.3 8.67,-2.2 10.33,-2.7 1.67,-0.51 2.78,-1.03 3.31,-1.55 0.7,-0.58 1.03,-1.24 0.97,-1.96 -0.05,-0.73 -0.41,-1.5 -1.07,-2.31 l 2.8,-2.27 26.67,32.93 -2.8,2.27 c -0.73,-0.89 -1.92,-1.33 -3.57,-1.3 -1.65,0.03 -3.85,0.42 -6.59,1.16 l -144.36,36.61 c -1.24,0.3 -2.35,0.54 -3.35,0.72 -1,0.18 -1.85,0.53 -2.56,1.07 -0.6,0.52 -0.88,1.17 -0.85,1.94 0.03,0.77 0.29,1.48 0.79,2.12 l -2.8,2.27 -28.64,-35.35 2.81,-2.27 c 0.54,0.59 1.2,0.92 1.98,0.99 0.78,0.06 1.39,-0.07 1.84,-0.41 0.79,-0.67 1.43,-1.45 1.91,-2.34 0.49,-0.89 0.95,-1.78 1.39,-2.67 l 64.68,-127.97 c 1.98,-3.59 3.47,-6.44 4.45,-8.58 0.97,-2.14 0.75,-4.2 -0.67,-6.19 l 2.8,-2.27 25.37,31.31"
         style="fill:#008940;fill-opacity:1;fill-rule:evenodd;stroke:none"
         id="path80" /><path
         d="m 3324.68,3911.67 143.74,-17.56 c 1.96,-0.24 3.66,-0.48 5.11,-0.72 1.45,-0.25 2.4,-0.61 2.86,-1.09 0.5,-0.61 0.67,-1.28 0.52,-2.03 -0.16,-0.73 -0.64,-1.45 -1.44,-2.13 l 2.33,-2.76 30.04,25.21 -2.32,2.76 c -1.25,-1.09 -2.43,-1.48 -3.54,-1.18 -1.11,0.3 -2.39,1.34 -3.85,3.12 l -89.27,106.38 c -1.5,1.75 -2.3,3.2 -2.41,4.35 -0.11,1.14 0.49,2.23 1.78,3.28 l -2.32,2.76 -27.66,-23.21 2.32,-2.77 c 1.16,1.02 2.28,1.37 3.37,1.05 1.09,-0.32 2.37,-1.37 3.84,-3.15 l 65.02,-77.5 -135.75,16.12 c -1.55,0.16 -2.89,0.27 -4,0.33 -1.12,0.05 -2.02,0.45 -2.7,1.18 -0.56,0.69 -0.78,1.32 -0.64,1.88 0.14,0.56 0.52,1.09 1.13,1.59 l -2.31,2.76 -33.84,-28.4 2.31,-2.76 c 1.17,1.02 2.29,1.37 3.37,1.04 1.1,-0.31 2.37,-1.36 3.83,-3.14 l 89.27,-106.38 c 1.5,-1.75 2.31,-3.2 2.44,-4.32 0.13,-1.13 -0.42,-2.17 -1.61,-3.14 l 2.31,-2.76 27.06,22.71 -2.31,2.76 c -0.97,-0.85 -1.97,-1.11 -3.02,-0.75 -1.04,0.35 -2.3,1.42 -3.79,3.19 l -69.87,83.28"
         style="fill:#008940;fill-opacity:1;fill-rule:evenodd;stroke:none"
         id="path82" /><path
         d="m 3684.28,4191.5 1.52,-3.27 c 0.98,0.46 1.94,0.68 2.86,0.65 0.92,-0.03 1.6,-0.45 2.02,-1.25 0.41,-1.34 0.69,-5.82 0.85,-13.44 0.15,-7.63 0.34,-16.03 0.53,-25.22 l 2.24,-84.75 -64.43,55.75 c -9.55,8.11 -16.78,14.19 -21.7,18.24 -4.93,4.07 -7.59,6.47 -7.96,7.24 -0.36,0.83 -0.29,1.59 0.24,2.3 0.53,0.71 1.34,1.31 2.42,1.81 l -1.52,3.27 -40.53,-18.89 1.53,-3.27 c 2.55,1.04 4.66,1.02 6.34,-0.06 1.67,-1.09 3.18,-2.25 4.5,-3.5 l 112.88,-96.29 c 0.96,-0.77 1.93,-1.6 2.88,-2.49 0.96,-0.89 1.54,-1.54 1.77,-1.94 0.32,-0.6 0.38,-1.22 0.19,-1.88 -0.18,-0.66 -0.91,-1.29 -2.16,-1.91 l 1.53,-3.26 38.63,18.01 -1.52,3.27 c -1.34,-0.49 -2.41,-0.69 -3.2,-0.59 -0.79,0.09 -1.35,0.49 -1.67,1.19 -0.36,0.79 -0.56,1.64 -0.61,2.55 -0.05,0.9 -0.11,2.04 -0.16,3.4 l -3.91,147.39 c -0.1,2.44 0.19,4.63 0.89,6.55 0.71,1.93 1.83,3.27 3.35,4.04 l -1.52,3.27 -36.28,-16.92"
         style="fill:#008940;fill-opacity:1;fill-rule:evenodd;stroke:none"
         id="path84" /><path
         d="m 3970.96,4113.4 -8.34,31.11 -3.48,-0.93 c 0.32,-1.14 -0.04,-2.16 -1.06,-3.08 -1.03,-0.92 -2.78,-1.72 -5.28,-2.39 l -102.75,-27.53 -10.91,40.71 65.58,17.57 c 2.5,0.61 4.41,0.7 5.72,0.25 1.31,-0.44 2.06,-1.07 2.26,-1.88 l 3.47,0.93 -8.46,31.62 -3.49,-0.94 c 0.32,-1.12 0.02,-2.14 -0.94,-3.04 -0.94,-0.9 -2.66,-1.69 -5.15,-2.36 l -65.58,-17.57 -10.37,38.71 100.99,27.06 c 2.62,0.67 4.61,0.72 5.97,0.19 1.37,-0.55 2.21,-1.47 2.52,-2.76 l 3.49,0.93 -8.6,32.12 -3.49,-0.94 c 0.26,-0.89 -0.1,-1.75 -1.08,-2.61 -0.99,-0.85 -2.79,-1.63 -5.4,-2.35 l -136.11,-36.47 0.93,-3.49 c 1.83,0.52 3.17,0.41 4.03,-0.33 0.85,-0.75 1.56,-2.25 2.11,-4.48 l 35.94,-134.14 c 0.64,-2.22 0.78,-3.87 0.42,-4.94 -0.37,-1.08 -1.48,-1.84 -3.32,-2.3 l 0.93,-3.49 137.88,36.95 c 2.49,0.68 4.39,0.95 5.7,0.82 1.3,-0.14 2.1,-0.77 2.38,-1.89 l 3.49,0.94"
         style="fill:#008940;fill-opacity:1;fill-rule:evenodd;stroke:none"
         id="path86" /><path
         d="m 4142.34,4169.47 c -3.02,-2.5 -8.72,-5.18 -17.13,-8.03 -8.4,-2.84 -17.44,-4.77 -27.11,-5.76 -19.82,-1.74 -36.39,1.52 -49.72,9.78 -13.33,8.26 -21.02,21.75 -23.06,40.49 -0.89,12.05 1.26,22.51 6.44,31.38 5.18,8.87 12.43,15.91 21.73,21.12 9.31,5.2 19.7,8.32 31.17,9.35 11.12,0.8 20.76,0.25 28.94,-1.65 8.17,-1.89 14.52,-4.12 19.04,-6.68 4.52,-2.56 6.87,-4.44 7.01,-5.65 0.07,-0.89 0.08,-1.57 0.02,-2.05 -0.06,-0.48 -0.15,-0.85 -0.26,-1.1 l 3.23,-1.55 15.62,36.31 -4.03,1.21 c -0.96,-0.91 -1.96,-1.43 -2.99,-1.56 -0.96,0 -3.2,0.55 -6.7,1.66 -3.51,1.11 -7.95,2.32 -13.33,3.63 -5.6,1.41 -12.34,2.44 -20.23,3.13 -7.89,0.68 -16.88,0.6 -26.99,-0.21 -17.98,-1.61 -33.9,-6.18 -47.73,-13.71 -13.84,-7.54 -24.47,-17.73 -31.87,-30.59 -7.4,-12.86 -10.43,-28.08 -9.08,-45.67 1.79,-18.52 7.27,-33.46 16.46,-44.81 9.18,-11.34 21.06,-19.34 35.63,-23.98 14.58,-4.64 30.84,-6.16 48.81,-4.57 16.06,1.46 30.98,4.94 44.74,10.43 13.76,5.5 25.49,12.61 35.18,21.33 l -0.31,3.62 c -1.08,0.39 -1.86,0.93 -2.37,1.6 -0.5,0.66 -0.81,1.7 -0.91,3.08 l -3.79,43.26 c -0.19,2.02 -0.1,3.44 0.27,4.3 0.37,0.85 1.05,1.48 2.05,1.9 l -0.31,3.62 -71.22,-6.23 c -2.1,-0.15 -3.78,0.1 -5.03,0.74 -1.25,0.64 -1.94,1.49 -2.05,2.56 l -3.6,-0.31 2.97,-33.91 3.6,0.31 c -0.08,1.11 0.44,2.2 1.54,3.27 1.09,1.08 2.69,1.74 4.78,1.99 l 38.36,3.36 2.23,-25.41"
         style="fill:#008940;fill-opacity:1;fill-rule:evenodd;stroke:none"
         id="path88" /><path
         d="m 4376.9,4124.14 2.8,32.08 -3.59,0.32 c -0.09,-1.17 -0.77,-2.01 -2.05,-2.53 -1.27,-0.51 -3.2,-0.66 -5.78,-0.44 l -105.97,9.28 3.68,41.98 67.63,-5.91 c 2.57,-0.28 4.38,-0.85 5.46,-1.72 1.08,-0.87 1.57,-1.72 1.48,-2.55 l 3.6,-0.31 2.85,32.61 -3.6,0.31 c -0.08,-1.17 -0.72,-2.02 -1.92,-2.54 -1.2,-0.52 -3.09,-0.67 -5.65,-0.45 l -67.63,5.91 3.48,39.92 104.17,-9.11 c 2.68,-0.27 4.58,-0.89 5.67,-1.86 1.09,-0.98 1.57,-2.13 1.42,-3.46 l 3.6,-0.31 2.9,33.12 -3.59,0.31 c -0.06,-0.92 -0.7,-1.62 -1.92,-2.08 -1.22,-0.47 -3.17,-0.59 -5.87,-0.37 l -140.38,12.29 -0.31,-3.6 c 1.89,-0.13 3.11,-0.69 3.66,-1.69 0.55,-0.99 0.7,-2.64 0.45,-4.93 l -12.1,-138.35 c -0.16,-2.3 -0.59,-3.89 -1.3,-4.77 -0.71,-0.89 -2.02,-1.23 -3.9,-1.03 l -0.33,-3.6 142.2,-12.44 c 2.59,-0.21 4.46,-0.6 5.64,-1.18 1.19,-0.58 1.71,-1.44 1.61,-2.58 l 3.59,-0.32"
         style="fill:#008940;fill-opacity:1;fill-rule:evenodd;stroke:none"
         id="path90" /><path
         d="m 4508.96,4101.45 c -2.1,0.49 -3.41,1.28 -3.93,2.38 -0.5,1.11 -0.46,2.77 0.14,4.99 l 29.83,119.61 49.98,-12.46 c 2.51,-0.59 4.26,-1.23 5.28,-1.92 1.01,-0.69 1.36,-1.64 1.02,-2.87 l 3.5,-0.87 7.68,30.74 -3.51,0.88 c -0.25,-1.12 -1,-1.78 -2.23,-1.95 -1.23,-0.19 -3.09,0.04 -5.59,0.68 l -130.71,32.59 c -2.5,0.61 -4.25,1.28 -5.25,2.02 -1,0.73 -1.36,1.66 -1.05,2.77 l -3.49,0.87 -7.69,-30.74 3.51,-0.88 c 0.28,1.24 1.04,1.92 2.26,2.06 1.21,0.13 3.06,-0.14 5.56,-0.79 l 49.98,-12.46 -29.82,-119.61 c -0.5,-2.25 -1.2,-3.75 -2.09,-4.5 -0.9,-0.75 -2.39,-0.85 -4.47,-0.3 l -0.87,-3.5 41.09,-10.25 0.87,3.51"
         style="fill:#008940;fill-opacity:1;fill-rule:evenodd;stroke:none"
         id="path92" /><path
         d="m 4708.81,4101 -48.2,19.48 45.3,43.42 z m -93.96,-35.47 1.36,3.34 c -1.34,0.53 -2.24,1.2 -2.73,2.02 -0.48,0.81 -0.48,1.82 0,3.02 0.1,0.42 0.76,1.25 1.97,2.49 1.21,1.23 3.71,3.7 7.51,7.42 3.8,3.71 9.64,9.49 17.51,17.35 l 69.41,-28.05 c 0.48,-11.57 0.86,-20.05 1.15,-25.42 0.28,-5.38 0.42,-8.94 0.43,-10.67 0.01,-1.75 -0.17,-2.95 -0.52,-3.63 -0.35,-0.83 -0.88,-1.33 -1.58,-1.49 -0.72,-0.17 -1.56,-0.05 -2.52,0.35 l -1.36,-3.34 39.29,-15.88 1.35,3.35 c -1.06,0.43 -1.82,1.44 -2.28,3.02 -0.46,1.59 -0.73,3.81 -0.82,6.65 l -7.2,148.75 c -0.08,1.27 -0.17,2.41 -0.29,3.42 -0.12,1 -0.03,1.92 0.27,2.76 0.32,0.72 0.86,1.18 1.61,1.38 0.75,0.2 1.5,0.15 2.26,-0.14 l 1.35,3.35 -42.18,17.04 -1.35,-3.35 c 0.72,-0.34 1.23,-0.87 1.53,-1.6 0.29,-0.72 0.34,-1.35 0.14,-1.88 -0.41,-0.95 -0.97,-1.79 -1.68,-2.51 -0.7,-0.73 -1.42,-1.43 -2.15,-2.11 l -103.45,-99.27 c -2.86,-2.95 -5.16,-5.2 -6.92,-6.75 -1.75,-1.56 -3.79,-1.95 -6.11,-1.18 l -1.35,-3.35 37.35,-15.09"
         style="fill:#008940;fill-opacity:1;fill-rule:evenodd;stroke:none"
         id="path94" /><path
         d="m 4881.9,4004.48 0.69,-58.14 c 0.07,-2.76 0.15,-5.52 0.24,-8.3 0.09,-2.77 -0.22,-4.82 -0.93,-6.14 -0.38,-0.52 -0.82,-0.73 -1.32,-0.66 -0.5,0.08 -0.93,0.23 -1.28,0.48 l -1.96,-3.02 39.66,-25.76 1.97,3.02 c -1.63,1.11 -2.82,2.56 -3.58,4.39 -0.78,1.82 -1.19,3.78 -1.22,5.87 l -2.39,68.86 c 11.99,-6.02 23.47,-7.88 34.46,-5.58 10.98,2.3 19.86,8.49 26.65,18.56 9.52,14.95 10.89,29.02 4.1,42.22 -6.8,13.2 -20.24,26.19 -40.33,38.97 l -74.14,48.14 -1.96,-3.03 c 1.93,-1.21 2.93,-2.41 3.02,-3.59 0.09,-1.18 -0.53,-2.72 -1.84,-4.62 l -75.63,-116.46 c -1.2,-1.97 -2.36,-3.16 -3.48,-3.56 -1.11,-0.4 -2.61,0.03 -4.5,1.3 l -1.96,-3.03 35.08,-22.78 1.96,3.03 c -1.61,1 -2.42,2.08 -2.44,3.21 -0.02,1.14 0.61,2.66 1.91,4.57 l 30.61,47.13 z m -2.08,81.33 50.61,-32.86 c 9.19,-5.97 15.29,-11.96 18.27,-17.95 2.98,-6 2.6,-11.91 -1.12,-17.71 -3.57,-5.92 -8.05,-9.25 -13.45,-9.99 -5.41,-0.73 -12.82,1.95 -22.23,8.04 l -54.76,35.56 22.68,34.91"
         style="fill:#008940;fill-opacity:1;fill-rule:evenodd;stroke:none"
         id="path96" /><path
         d="m 5071,3964.73 c 1.44,1.82 2.78,2.8 4.06,2.96 1.27,0.17 2.92,-0.62 4.93,-2.35 l 2.33,2.76 -34.84,29.22 -2.31,-2.76 c 2.43,-2 3.69,-3.65 3.78,-4.95 0.08,-1.31 -0.66,-2.81 -2.22,-4.51 l -89.27,-106.38 c -1.4,-1.83 -2.75,-2.82 -4.05,-2.96 -1.3,-0.14 -3.14,0.82 -5.54,2.86 l -2.31,-2.76 34.83,-29.23 2.32,2.76 c -2.06,1.69 -3.12,3.17 -3.18,4.45 -0.06,1.29 0.67,2.79 2.21,4.51 l 89.26,106.38"
         style="fill:#008940;fill-opacity:1;fill-rule:evenodd;stroke:none"
         id="path98" /><path
         d="m 5133.14,3790.95 -35.46,38.02 59.41,20.21 z m -100.15,7.56 2.64,2.46 c -0.99,1.04 -1.52,2.03 -1.61,2.97 -0.1,0.95 0.32,1.86 1.27,2.74 0.27,0.34 1.21,0.82 2.84,1.43 1.61,0.6 4.93,1.79 9.94,3.54 5.01,1.76 12.75,4.54 23.2,8.33 l 51.06,-54.75 c -4.46,-10.7 -7.7,-18.54 -9.72,-23.53 -2.01,-4.99 -3.39,-8.27 -4.12,-9.85 -0.72,-1.58 -1.39,-2.6 -1.99,-3.06 -0.66,-0.61 -1.36,-0.84 -2.07,-0.69 -0.71,0.15 -1.43,0.61 -2.14,1.39 l -2.64,-2.47 28.9,-30.99 2.64,2.46 c -0.78,0.84 -1.05,2.08 -0.78,3.71 0.25,1.63 0.93,3.75 2.06,6.37 l 56.34,137.85 c 0.46,1.19 0.85,2.26 1.18,3.22 0.31,0.97 0.79,1.76 1.41,2.39 0.61,0.52 1.28,0.71 2.04,0.58 0.76,-0.14 1.43,-0.5 1.99,-1.08 l 2.64,2.46 -31.02,33.26 -2.64,-2.45 c 0.51,-0.62 0.75,-1.32 0.7,-2.1 -0.04,-0.78 -0.26,-1.37 -0.65,-1.77 -0.78,-0.68 -1.64,-1.21 -2.58,-1.57 -0.96,-0.35 -1.9,-0.69 -2.85,-1 l -135.72,-46.24 c -3.82,-1.46 -6.86,-2.53 -9.12,-3.2 -2.24,-0.68 -4.25,-0.17 -6.03,1.51 l -2.65,-2.45 27.48,-29.47"
         style="fill:#008940;fill-opacity:1;fill-rule:evenodd;stroke:none"
         id="path100" /><path
         d="m 5268.92,3703.22 -37.39,-139.91 c -0.51,-1.9 -0.99,-3.55 -1.43,-4.95 -0.44,-1.4 -0.94,-2.29 -1.46,-2.68 -0.69,-0.41 -1.38,-0.49 -2.09,-0.23 -0.71,0.26 -1.35,0.83 -1.92,1.72 l -3.05,-1.91 20.79,-33.28 3.05,1.92 c -0.9,1.4 -1.14,2.62 -0.68,3.67 0.45,1.06 1.66,2.19 3.63,3.38 l 117.77,73.59 c 1.94,1.25 3.49,1.84 4.64,1.79 1.14,-0.06 2.14,-0.8 2.99,-2.23 l 3.07,1.92 -19.14,30.62 -3.06,-1.91 c 0.84,-1.29 1.03,-2.45 0.57,-3.49 -0.47,-1.03 -1.69,-2.15 -3.65,-3.35 l -85.79,-53.61 34.86,132.19 c 0.36,1.51 0.65,2.82 0.87,3.92 0.21,1.1 0.72,1.94 1.54,2.5 0.76,0.46 1.42,0.59 1.95,0.37 0.54,-0.21 1.01,-0.66 1.41,-1.34 l 3.07,1.91 -23.41,37.46 -3.07,-1.91 c 0.85,-1.29 1.04,-2.44 0.57,-3.48 -0.47,-1.03 -1.68,-2.15 -3.65,-3.35 l -117.77,-73.59 c -1.94,-1.24 -3.48,-1.85 -4.62,-1.81 -1.13,0.03 -2.09,0.7 -2.88,2.03 l -3.05,-1.91 18.72,-29.96 3.05,1.91 c -0.71,1.08 -0.82,2.11 -0.32,3.09 0.5,0.99 1.73,2.09 3.69,3.3 l 92.19,57.61"
         style="fill:#008940;fill-opacity:1;fill-rule:evenodd;stroke:none"
         id="path102" /><path
         d="m 5461.14,3422.7 -3.45,-1.05 c 0.75,-2.41 0.76,-4.13 0.04,-5.16 -0.72,-1.02 -2.15,-1.82 -4.27,-2.39 l -90.03,-27.52 c -20.67,-6.64 -32.92,-18.04 -36.76,-34.2 -3.83,-16.16 -1.95,-36.02 5.65,-59.58 6.88,-23.78 16.42,-41.3 28.63,-52.55 12.21,-11.26 28.75,-13.86 49.6,-7.79 l 90.03,27.52 c 2.09,0.68 3.71,0.81 4.89,0.37 1.17,-0.44 2.07,-1.7 2.68,-3.77 l 3.45,1.05 -12.38,40.5 -3.45,-1.05 c 0.61,-1.95 0.56,-3.41 -0.19,-4.41 -0.73,-1 -2.15,-1.79 -4.25,-2.39 l -91.03,-27.83 c -10.91,-3.34 -19.75,-1.81 -26.53,4.61 -6.78,6.41 -12.48,17.47 -17.11,33.18 -4.95,15.61 -6.41,27.97 -4.37,37.08 2.03,9.11 8.51,15.33 19.42,18.65 l 91.02,27.83 c 2.09,0.67 3.71,0.82 4.86,0.46 1.15,-0.36 1.97,-1.4 2.48,-3.11 l 3.44,1.05 -12.37,40.5"
         style="fill:#008940;fill-opacity:1;fill-rule:evenodd;stroke:none"
         id="path104" /><path
         d="M 5489.84,3134.61 5393,3026.93 c -1.31,-1.47 -2.49,-2.72 -3.51,-3.77 -1.04,-1.05 -1.88,-1.62 -2.53,-1.72 -0.79,-0.06 -1.45,0.19 -1.96,0.74 -0.51,0.56 -0.82,1.36 -0.92,2.41 l -3.6,-0.32 3.42,-39.08 3.6,0.31 c -0.18,1.65 0.17,2.85 1.05,3.59 0.88,0.73 2.47,1.18 4.78,1.36 l 138.34,12.1 c 2.29,0.23 3.94,0.06 4.94,-0.51 0.99,-0.57 1.55,-1.69 1.66,-3.34 l 3.59,0.31 -3.14,35.97 -3.6,-0.32 c 0.17,-1.52 -0.19,-2.64 -1.07,-3.36 -0.89,-0.7 -2.48,-1.15 -4.79,-1.32 l -100.77,-8.82 91.06,101.95 c 1.02,1.18 1.88,2.21 2.58,3.1 0.68,0.89 1.52,1.39 2.5,1.52 0.89,0.07 1.53,-0.11 1.91,-0.55 0.38,-0.43 0.59,-1.04 0.64,-1.83 l 3.6,0.31 -3.85,44 -3.59,-0.31 c 0.16,-1.53 -0.2,-2.65 -1.08,-3.36 -0.89,-0.7 -2.47,-1.15 -4.77,-1.33 l -138.35,-12.1 c -2.3,-0.22 -3.94,-0.06 -4.93,0.48 -1,0.54 -1.55,1.58 -1.65,3.12 l -3.6,-0.31 3.09,-35.2 3.59,0.31 c -0.15,1.29 0.23,2.26 1.11,2.91 0.89,0.66 2.49,1.08 4.79,1.27 l 108.3,9.47"
         style="fill:#008940;fill-opacity:1;fill-rule:evenodd;stroke:none"
         id="path106" /><path
         d="m 5528.5,2890.91 c 2.31,-0.02 3.93,-0.47 4.83,-1.38 0.91,-0.91 1.31,-2.68 1.19,-5.34 l 3.61,-0.13 1.57,45.44 -3.6,0.13 c -0.08,-3.13 -0.61,-5.16 -1.57,-6.02 -0.98,-0.86 -2.62,-1.22 -4.92,-1.04 l -138.79,4.85 c -2.3,-0.03 -3.91,0.44 -4.83,1.37 -0.91,0.94 -1.29,2.98 -1.15,6.12 l -3.61,0.13 -1.58,-45.44 3.61,-0.13 c 0.05,2.67 0.57,4.41 1.55,5.25 0.97,0.84 2.61,1.19 4.91,1.03 l 138.78,-4.84"
         style="fill:#008940;fill-opacity:1;fill-rule:evenodd;stroke:none"
         id="path108" /><path
         d="m 5498.03,2733.7 c -3.44,-20.04 -11.13,-35.3 -23.09,-45.77 -11.95,-10.48 -26.36,-14.53 -43.23,-12.18 -16.78,2.97 -29.23,11.29 -37.36,24.94 -8.14,13.65 -10.73,30.55 -7.8,50.68 3.43,20.04 11.13,35.3 23.08,45.77 11.95,10.48 26.37,14.53 43.23,12.18 16.77,-2.97 29.23,-11.28 37.35,-24.95 8.14,-13.65 10.75,-30.53 7.82,-50.67 m 25.14,-3.97 c 2.87,19.09 1.89,36.41 -2.91,51.98 -4.8,15.56 -12.62,28.37 -23.47,38.43 -10.85,10.05 -23.92,16.38 -39.21,18.93 -15.33,2.29 -29.72,0.33 -43.14,-5.88 -13.43,-6.22 -24.83,-15.98 -34.2,-29.3 -9.38,-13.32 -15.65,-29.51 -18.83,-48.55 -2.86,-19.08 -1.9,-36.41 2.91,-51.97 4.79,-15.57 12.62,-28.38 23.47,-38.44 10.85,-10.06 23.91,-16.37 39.2,-18.94 15.34,-2.28 29.72,-0.31 43.15,5.89 13.42,6.21 24.82,15.98 34.2,29.3 9.37,13.32 15.64,29.51 18.83,48.55"
         style="fill:#008940;fill-opacity:1;fill-rule:evenodd;stroke:none"
         id="path110" /><path
         d="m 5431.75,2544.12 -134.23,-54.34 c -1.83,-0.73 -3.44,-1.34 -4.82,-1.84 -1.38,-0.49 -2.4,-0.64 -3.02,-0.44 -0.74,0.29 -1.22,0.81 -1.44,1.53 -0.22,0.72 -0.15,1.57 0.22,2.56 l -3.37,1.29 -14.05,-36.62 3.36,-1.29 c 0.56,1.56 1.4,2.48 2.52,2.75 1.12,0.28 2.75,-0.02 4.89,-0.87 l 129.65,-49.76 c 2.16,-0.8 3.56,-1.68 4.21,-2.63 0.64,-0.95 0.66,-2.2 0.03,-3.73 l 3.36,-1.29 12.94,33.7 -3.37,1.3 c -0.5,-1.45 -1.32,-2.3 -2.43,-2.55 -1.11,-0.25 -2.73,0.05 -4.88,0.89 l -94.44,36.26 126.54,51.71 c 1.44,0.62 2.66,1.18 3.66,1.66 1.01,0.5 1.98,0.59 2.93,0.27 0.83,-0.33 1.32,-0.76 1.48,-1.32 0.14,-0.57 0.07,-1.21 -0.23,-1.93 l 3.37,-1.31 15.83,41.24 -3.37,1.29 c -0.53,-1.44 -1.34,-2.29 -2.44,-2.54 -1.1,-0.25 -2.73,0.06 -4.86,0.91 l -129.66,49.76 c -2.16,0.8 -3.58,1.67 -4.23,2.6 -0.65,0.91 -0.69,2.09 -0.11,3.51 l -3.37,1.3 -12.65,-32.98 3.36,-1.29 c 0.44,1.21 1.19,1.92 2.28,2.11 1.09,0.2 2.7,-0.12 4.86,-0.95 l 101.48,-38.96"
         style="fill:#008940;fill-opacity:1;fill-rule:evenodd;stroke:none"
         id="path112" /><path
         d="m 3087.43,2597.83 -29.87,-12.06 1.35,-3.35 c 1.09,0.45 2.15,0.22 3.19,-0.67 1.03,-0.91 2.04,-2.56 3.02,-4.96 l 39.84,-98.61 -39.08,-15.8 -25.43,62.94 c -0.92,2.42 -1.23,4.3 -0.95,5.65 0.28,1.36 0.81,2.19 1.59,2.48 l -1.35,3.34 -30.35,-12.27 1.36,-3.34 c 1.08,0.46 2.12,0.27 3.14,-0.56 1,-0.83 1.99,-2.43 2.96,-4.83 l 25.43,-62.95 -37.15,-15.01 -39.16,96.94 c -0.99,2.52 -1.29,4.49 -0.92,5.91 0.37,1.42 1.18,2.36 2.43,2.83 l -1.35,3.35 -30.83,-12.45 1.35,-3.35 c 0.85,0.37 1.76,0.12 2.72,-0.76 0.97,-0.87 1.98,-2.55 3,-5.05 l 52.78,-130.67 3.35,1.35 c -0.74,1.75 -0.79,3.1 -0.15,4.04 0.63,0.94 2.03,1.82 4.19,2.64 l 128.76,52.03 c 2.12,0.9 3.74,1.24 4.85,1 1.1,-0.23 2,-1.23 2.69,-3.02 l 3.35,1.37 -53.48,132.34 c -0.99,2.39 -1.49,4.24 -1.51,5.55 -0.02,1.32 0.5,2.19 1.58,2.61 l -1.35,3.34"
         style="fill:#008940;fill-opacity:1;fill-rule:evenodd;stroke:none"
         id="path114" /><path
         d="m 2916.75,2606.16 3.53,0.76 c -0.54,2.46 -0.4,4.18 0.41,5.13 0.81,0.96 2.29,1.63 4.45,2.01 l 92.09,19.58 c 21.18,4.81 34.38,15.1 39.61,30.86 5.22,15.77 5.08,35.72 -0.44,59.84 -4.78,24.3 -12.76,42.59 -23.95,54.86 -11.18,12.27 -27.43,16.3 -48.74,12.08 l -92.08,-19.57 c -2.14,-0.51 -3.77,-0.49 -4.9,0.06 -1.12,0.53 -1.9,1.86 -2.34,3.98 l -3.53,-0.75 8.81,-41.42 3.53,0.74 c -0.44,2 -0.26,3.45 0.56,4.38 0.81,0.93 2.31,1.6 4.45,2.01 l 93.11,19.8 c 11.15,2.37 19.83,0.07 26.03,-6.91 6.2,-6.97 10.91,-18.49 14.16,-34.55 3.57,-15.98 3.94,-28.42 1.12,-37.31 -2.82,-8.9 -9.82,-14.54 -20.98,-16.89 l -93.09,-19.79 c -2.15,-0.49 -3.77,-0.5 -4.89,-0.04 -1.11,0.46 -1.84,1.57 -2.19,3.32 l -3.54,-0.75 8.81,-41.43"
         style="fill:#008940;fill-opacity:1;fill-rule:evenodd;stroke:none"
         id="path116" /><path
         d="m 2963.2,2944.36 47.82,33.1 c 2.25,1.59 4.49,3.2 6.74,4.83 2.26,1.62 4.12,2.51 5.62,2.67 0.63,-0.03 1.06,-0.28 1.28,-0.73 0.22,-0.46 0.32,-0.9 0.32,-1.33 l 3.6,0.06 -0.83,47.28 -3.6,-0.06 c 0,-1.96 -0.55,-3.76 -1.63,-5.42 -1.09,-1.65 -2.47,-3.09 -4.18,-4.3 l -55.76,-40.47 c -1.71,13.3 -6.6,23.85 -14.64,31.67 -8.05,7.83 -18.16,11.73 -30.3,11.72 -17.71,-0.46 -30.14,-7.19 -37.29,-20.21 -7.15,-13.01 -10.39,-31.42 -9.75,-55.23 l 1.55,-88.37 3.6,0.07 c -0.07,2.28 0.36,3.77 1.29,4.51 0.93,0.73 2.55,1.09 4.86,1.06 l 138.84,2.42 c 2.31,0.12 3.94,-0.19 4.9,-0.89 0.95,-0.69 1.44,-2.18 1.44,-4.46 l 3.61,0.07 -0.73,41.81 -3.61,-0.05 c 0.06,-1.91 -0.37,-3.18 -1.29,-3.83 -0.94,-0.66 -2.56,-0.97 -4.87,-0.97 l -56.18,-0.98 z m -66.26,-47.2 -1.05,60.33 c -0.2,10.97 1.35,19.36 4.66,25.19 3.31,5.82 8.41,8.81 15.3,8.97 6.9,0.36 12.17,-1.5 15.81,-5.57 3.63,-4.06 5.55,-11.71 5.77,-22.92 l 1.13,-65.27 -41.62,-0.73"
         style="fill:#008940;fill-opacity:1;fill-rule:evenodd;stroke:none"
         id="path118" /><path
         d="m 2911.48,3180.53 c 3.43,20.05 11.12,35.31 23.08,45.78 11.96,10.47 26.36,14.53 43.24,12.17 16.77,-2.97 29.22,-11.28 37.35,-24.94 8.14,-13.65 10.74,-30.54 7.81,-50.67 -3.43,-20.05 -11.13,-35.31 -23.08,-45.78 -11.95,-10.47 -26.37,-14.53 -43.23,-12.18 -16.78,2.98 -29.23,11.29 -37.37,24.95 -8.13,13.65 -10.73,30.54 -7.8,50.67 m -25.14,3.98 c -2.86,-19.09 -1.89,-36.41 2.9,-51.98 4.81,-15.56 12.63,-28.38 23.48,-38.44 10.85,-10.05 23.92,-16.36 39.21,-18.93 15.33,-2.29 29.72,-0.32 43.14,5.9 13.42,6.21 24.83,15.97 34.2,29.29 9.38,13.32 15.65,29.51 18.82,48.54 2.86,19.09 1.9,36.42 -2.9,51.98 -4.79,15.57 -12.63,28.38 -23.48,38.43 -10.85,10.06 -23.91,16.38 -39.2,18.94 -15.34,2.29 -29.71,0.32 -43.14,-5.89 -13.43,-6.21 -24.82,-15.98 -34.2,-29.3 -9.37,-13.32 -15.65,-29.5 -18.83,-48.54"
         style="fill:#008940;fill-opacity:1;fill-rule:evenodd;stroke:none"
         id="path120" /><path
         d="m 2961.86,3374.04 19.73,57.3 c 3.12,9.48 6.74,15.59 10.89,18.33 4.13,2.73 9.86,2.75 17.18,0.06 7.43,-2.38 11.94,-5.93 13.51,-10.63 1.57,-4.7 0.67,-11.75 -2.71,-21.14 l -19.72,-57.31 z m 84.79,41.78 c 5.83,17.71 6.1,31.71 0.83,42.01 -5.29,10.29 -14.28,17.52 -27.01,21.69 -15.19,5.15 -27.86,4.6 -37.97,-1.66 -10.1,-6.26 -17.95,-17.61 -23.53,-34.05 l -33.18,-96.37 3.41,-1.17 c 0.67,2.05 1.57,3.24 2.68,3.58 1.11,0.34 2.75,0.11 4.91,-0.69 l 131.31,-45.22 c 2.2,-0.69 3.63,-1.52 4.31,-2.47 0.66,-0.97 0.63,-2.45 -0.1,-4.47 l 3.41,-1.18 13.62,39.55 -3.42,1.18 c -0.62,-1.93 -1.49,-3.05 -2.6,-3.37 -1.11,-0.32 -2.74,-0.08 -4.91,0.72 l -53.62,18.47 21.86,63.45"
         style="fill:#008940;fill-opacity:1;fill-rule:evenodd;stroke:none"
         id="path122" /><path
         d="m 3224.25,3611.23 -28.17,15.62 -1.75,-3.16 c 1.03,-0.56 1.53,-1.52 1.47,-2.9 -0.04,-1.38 -0.69,-3.19 -1.94,-5.46 l -51.57,-93.04 -36.87,20.44 32.91,59.38 c 1.3,2.23 2.57,3.66 3.8,4.29 1.23,0.63 2.21,0.74 2.92,0.31 l 1.75,3.16 -28.62,15.87 -1.75,-3.16 c 1.03,-0.55 1.55,-1.48 1.53,-2.79 -0.01,-1.3 -0.63,-3.09 -1.88,-5.35 l -32.91,-59.37 -35.05,19.43 50.68,91.44 c 1.34,2.35 2.69,3.83 4.01,4.43 1.34,0.6 2.59,0.57 3.74,-0.11 l 1.75,3.16 -29.08,16.12 -1.75,-3.16 c 0.83,-0.42 1.2,-1.29 1.13,-2.59 -0.07,-1.31 -0.76,-3.15 -2.06,-5.52 l -68.31,-123.24 3.16,-1.75 c 0.89,1.68 1.9,2.56 3.04,2.66 1.13,0.09 2.69,-0.43 4.68,-1.59 l 121.46,-67.33 c 2.05,-1.07 3.33,-2.12 3.85,-3.13 0.5,-1.01 0.29,-2.34 -0.66,-3.99 l 3.16,-1.75 69.2,124.85 c 1.24,2.27 2.36,3.83 3.36,4.67 1.01,0.84 2.02,0.98 3.02,0.41 l 1.75,3.15"
         style="fill:#008940;fill-opacity:1;fill-rule:evenodd;stroke:none"
         id="path124" /><path
         d="m 3256.04,3765.69 -32.71,-40.4 -28.3,56.02 z m 6.46,-100.22 -2.81,2.27 c -0.9,-1.12 -1.8,-1.8 -2.72,-2.02 -0.92,-0.22 -1.89,0.07 -2.89,0.88 -0.38,0.22 -0.98,1.09 -1.81,2.62 -0.82,1.51 -2.46,4.63 -4.89,9.35 -2.44,4.72 -6.27,11.99 -11.48,21.82 l 47.11,58.18 c 11.21,-2.93 19.43,-5.05 24.65,-6.35 5.23,-1.3 8.67,-2.2 10.33,-2.7 1.67,-0.51 2.78,-1.03 3.31,-1.55 0.7,-0.58 1.03,-1.24 0.97,-1.96 -0.05,-0.73 -0.41,-1.5 -1.07,-2.31 l 2.8,-2.27 26.67,32.93 -2.8,2.27 c -0.73,-0.89 -1.92,-1.33 -3.57,-1.3 -1.65,0.03 -3.85,0.42 -6.59,1.16 l -144.36,36.61 c -1.24,0.3 -2.35,0.54 -3.35,0.72 -1,0.18 -1.85,0.53 -2.56,1.07 -0.6,0.52 -0.88,1.17 -0.85,1.94 0.03,0.77 0.29,1.48 0.79,2.12 l -2.8,2.27 -28.64,-35.35 2.81,-2.27 c 0.54,0.59 1.2,0.92 1.98,0.99 0.78,0.06 1.39,-0.07 1.84,-0.41 0.79,-0.67 1.43,-1.45 1.91,-2.34 0.49,-0.89 0.95,-1.78 1.39,-2.67 l 64.68,-127.97 c 1.98,-3.59 3.47,-6.44 4.45,-8.58 0.97,-2.14 0.75,-4.2 -0.67,-6.19 l 2.8,-2.27 25.37,31.31"
         style="fill:#008940;fill-opacity:1;fill-rule:evenodd;stroke:none"
         id="path126" /><path
         d="m 3324.68,3911.67 143.74,-17.56 c 1.96,-0.24 3.66,-0.48 5.11,-0.72 1.45,-0.25 2.4,-0.61 2.86,-1.09 0.5,-0.61 0.67,-1.28 0.52,-2.03 -0.16,-0.73 -0.64,-1.45 -1.44,-2.13 l 2.33,-2.76 30.04,25.21 -2.32,2.76 c -1.25,-1.09 -2.43,-1.48 -3.54,-1.18 -1.11,0.3 -2.39,1.34 -3.85,3.12 l -89.27,106.38 c -1.5,1.75 -2.3,3.2 -2.41,4.35 -0.11,1.14 0.49,2.23 1.78,3.28 l -2.32,2.76 -27.66,-23.21 2.32,-2.77 c 1.16,1.02 2.28,1.37 3.37,1.05 1.09,-0.32 2.37,-1.37 3.84,-3.15 l 65.02,-77.5 -135.75,16.12 c -1.55,0.16 -2.89,0.27 -4,0.33 -1.12,0.05 -2.02,0.45 -2.7,1.18 -0.56,0.69 -0.78,1.32 -0.64,1.88 0.14,0.56 0.52,1.09 1.13,1.59 l -2.31,2.76 -33.84,-28.4 2.31,-2.76 c 1.17,1.02 2.29,1.37 3.37,1.04 1.1,-0.31 2.37,-1.36 3.83,-3.14 l 89.27,-106.38 c 1.5,-1.75 2.31,-3.2 2.44,-4.32 0.13,-1.13 -0.42,-2.17 -1.61,-3.14 l 2.31,-2.76 27.06,22.71 -2.31,2.76 c -0.97,-0.85 -1.97,-1.11 -3.02,-0.75 -1.04,0.35 -2.3,1.42 -3.79,3.19 l -69.87,83.28"
         style="fill:#008940;fill-opacity:1;fill-rule:evenodd;stroke:none"
         id="path128" /><path
         d="m 3684.28,4191.5 1.52,-3.27 c 0.98,0.46 1.94,0.68 2.86,0.65 0.92,-0.03 1.6,-0.45 2.02,-1.25 0.41,-1.34 0.69,-5.82 0.85,-13.44 0.15,-7.63 0.34,-16.03 0.53,-25.22 l 2.24,-84.75 -64.43,55.75 c -9.55,8.11 -16.78,14.19 -21.7,18.24 -4.93,4.07 -7.59,6.47 -7.96,7.24 -0.36,0.83 -0.29,1.59 0.24,2.3 0.53,0.71 1.34,1.31 2.42,1.81 l -1.52,3.27 -40.53,-18.89 1.53,-3.27 c 2.55,1.04 4.66,1.02 6.34,-0.06 1.67,-1.09 3.18,-2.25 4.5,-3.5 l 112.88,-96.29 c 0.96,-0.77 1.93,-1.6 2.88,-2.49 0.96,-0.89 1.54,-1.54 1.77,-1.94 0.32,-0.6 0.38,-1.22 0.19,-1.88 -0.18,-0.66 -0.91,-1.29 -2.16,-1.91 l 1.53,-3.26 38.63,18.01 -1.52,3.27 c -1.34,-0.49 -2.41,-0.69 -3.2,-0.59 -0.79,0.09 -1.35,0.49 -1.67,1.19 -0.36,0.79 -0.56,1.64 -0.61,2.55 -0.05,0.9 -0.11,2.04 -0.16,3.4 l -3.91,147.39 c -0.1,2.44 0.19,4.63 0.89,6.55 0.71,1.93 1.83,3.27 3.35,4.04 l -1.52,3.27 -36.28,-16.92"
         style="fill:#008940;fill-opacity:1;fill-rule:evenodd;stroke:none"
         id="path130" /><path
         d="m 3970.96,4113.4 -8.34,31.11 -3.48,-0.93 c 0.32,-1.14 -0.04,-2.16 -1.06,-3.08 -1.03,-0.92 -2.78,-1.72 -5.28,-2.39 l -102.75,-27.53 -10.91,40.71 65.58,17.57 c 2.5,0.61 4.41,0.7 5.72,0.25 1.31,-0.44 2.06,-1.07 2.26,-1.88 l 3.47,0.93 -8.46,31.62 -3.49,-0.94 c 0.32,-1.12 0.02,-2.14 -0.94,-3.04 -0.94,-0.9 -2.66,-1.69 -5.15,-2.36 l -65.58,-17.57 -10.37,38.71 100.99,27.06 c 2.62,0.67 4.61,0.72 5.97,0.19 1.37,-0.55 2.21,-1.47 2.52,-2.76 l 3.49,0.93 -8.6,32.12 -3.49,-0.94 c 0.26,-0.89 -0.1,-1.75 -1.08,-2.61 -0.99,-0.85 -2.79,-1.63 -5.4,-2.35 l -136.11,-36.47 0.93,-3.49 c 1.83,0.52 3.17,0.41 4.03,-0.33 0.85,-0.75 1.56,-2.25 2.11,-4.48 l 35.94,-134.14 c 0.64,-2.22 0.78,-3.87 0.42,-4.94 -0.37,-1.08 -1.48,-1.84 -3.32,-2.3 l 0.93,-3.49 137.88,36.95 c 2.49,0.68 4.39,0.95 5.7,0.82 1.3,-0.14 2.1,-0.77 2.38,-1.89 l 3.49,0.94"
         style="fill:#008940;fill-opacity:1;fill-rule:evenodd;stroke:none"
         id="path132" /><path
         d="m 4142.34,4169.47 c -3.02,-2.5 -8.72,-5.18 -17.13,-8.03 -8.4,-2.84 -17.44,-4.77 -27.11,-5.76 -19.82,-1.74 -36.39,1.52 -49.72,9.78 -13.33,8.26 -21.02,21.75 -23.06,40.49 -0.89,12.05 1.26,22.51 6.44,31.38 5.18,8.87 12.43,15.91 21.73,21.12 9.31,5.2 19.7,8.32 31.17,9.35 11.12,0.8 20.76,0.25 28.94,-1.65 8.17,-1.89 14.52,-4.12 19.04,-6.68 4.52,-2.56 6.87,-4.44 7.01,-5.65 0.07,-0.89 0.08,-1.57 0.02,-2.05 -0.06,-0.48 -0.15,-0.85 -0.26,-1.1 l 3.23,-1.55 15.62,36.31 -4.03,1.21 c -0.96,-0.91 -1.96,-1.43 -2.99,-1.56 -0.96,0 -3.2,0.55 -6.7,1.66 -3.51,1.11 -7.95,2.32 -13.33,3.63 -5.6,1.41 -12.34,2.44 -20.23,3.13 -7.89,0.68 -16.88,0.6 -26.99,-0.21 -17.98,-1.61 -33.9,-6.18 -47.73,-13.71 -13.84,-7.54 -24.47,-17.73 -31.87,-30.59 -7.4,-12.86 -10.43,-28.08 -9.08,-45.67 1.79,-18.52 7.27,-33.46 16.46,-44.81 9.18,-11.34 21.06,-19.34 35.63,-23.98 14.58,-4.64 30.84,-6.16 48.81,-4.57 16.06,1.46 30.98,4.94 44.74,10.43 13.76,5.5 25.49,12.61 35.18,21.33 l -0.31,3.62 c -1.08,0.39 -1.86,0.93 -2.37,1.6 -0.5,0.66 -0.81,1.7 -0.91,3.08 l -3.79,43.26 c -0.19,2.02 -0.1,3.44 0.27,4.3 0.37,0.85 1.05,1.48 2.05,1.9 l -0.31,3.62 -71.22,-6.23 c -2.1,-0.15 -3.78,0.1 -5.03,0.74 -1.25,0.64 -1.94,1.49 -2.05,2.56 l -3.6,-0.31 2.97,-33.91 3.6,0.31 c -0.08,1.11 0.44,2.2 1.54,3.27 1.09,1.08 2.69,1.74 4.78,1.99 l 38.36,3.36 2.23,-25.41"
         style="fill:#008940;fill-opacity:1;fill-rule:evenodd;stroke:none"
         id="path134" /><path
         d="m 4376.9,4124.14 2.8,32.08 -3.59,0.32 c -0.09,-1.17 -0.77,-2.01 -2.05,-2.53 -1.27,-0.51 -3.2,-0.66 -5.78,-0.44 l -105.97,9.28 3.68,41.98 67.63,-5.91 c 2.57,-0.28 4.38,-0.85 5.46,-1.72 1.08,-0.87 1.57,-1.72 1.48,-2.55 l 3.6,-0.31 2.85,32.61 -3.6,0.31 c -0.08,-1.17 -0.72,-2.02 -1.92,-2.54 -1.2,-0.52 -3.09,-0.67 -5.65,-0.45 l -67.63,5.91 3.48,39.92 104.17,-9.11 c 2.68,-0.27 4.58,-0.89 5.67,-1.86 1.09,-0.98 1.57,-2.13 1.42,-3.46 l 3.6,-0.31 2.9,33.12 -3.59,0.31 c -0.06,-0.92 -0.7,-1.62 -1.92,-2.08 -1.22,-0.47 -3.17,-0.59 -5.87,-0.37 l -140.38,12.29 -0.31,-3.6 c 1.89,-0.13 3.11,-0.69 3.66,-1.69 0.55,-0.99 0.7,-2.64 0.45,-4.93 l -12.1,-138.35 c -0.16,-2.3 -0.59,-3.89 -1.3,-4.77 -0.71,-0.89 -2.02,-1.23 -3.9,-1.03 l -0.33,-3.6 142.2,-12.44 c 2.59,-0.21 4.46,-0.6 5.64,-1.18 1.19,-0.58 1.71,-1.44 1.61,-2.58 l 3.59,-0.32"
         style="fill:#008940;fill-opacity:1;fill-rule:evenodd;stroke:none"
         id="path136" /><path
         d="m 4508.96,4101.45 c -2.1,0.49 -3.41,1.28 -3.93,2.38 -0.5,1.11 -0.46,2.77 0.14,4.99 l 29.83,119.61 49.98,-12.46 c 2.51,-0.59 4.26,-1.23 5.28,-1.92 1.01,-0.69 1.36,-1.64 1.02,-2.87 l 3.5,-0.87 7.68,30.74 -3.51,0.88 c -0.25,-1.12 -1,-1.78 -2.23,-1.95 -1.23,-0.19 -3.09,0.04 -5.59,0.68 l -130.71,32.59 c -2.5,0.61 -4.25,1.28 -5.25,2.02 -1,0.73 -1.36,1.66 -1.05,2.77 l -3.49,0.87 -7.69,-30.74 3.51,-0.88 c 0.28,1.24 1.04,1.92 2.26,2.06 1.21,0.13 3.06,-0.14 5.56,-0.79 l 49.98,-12.46 -29.82,-119.61 c -0.5,-2.25 -1.2,-3.75 -2.09,-4.5 -0.9,-0.75 -2.39,-0.85 -4.47,-0.3 l -0.87,-3.5 41.09,-10.25 0.87,3.51"
         style="fill:#008940;fill-opacity:1;fill-rule:evenodd;stroke:none"
         id="path138" /><path
         d="m 4708.81,4101 -48.2,19.48 45.3,43.42 z m -93.96,-35.47 1.36,3.34 c -1.34,0.53 -2.24,1.2 -2.73,2.02 -0.48,0.81 -0.48,1.82 0,3.02 0.1,0.42 0.76,1.25 1.97,2.49 1.21,1.23 3.71,3.7 7.51,7.42 3.8,3.71 9.64,9.49 17.51,17.35 l 69.41,-28.05 c 0.48,-11.57 0.86,-20.05 1.15,-25.42 0.28,-5.38 0.42,-8.94 0.43,-10.67 0.01,-1.75 -0.17,-2.95 -0.52,-3.63 -0.35,-0.83 -0.88,-1.33 -1.58,-1.49 -0.72,-0.17 -1.56,-0.05 -2.52,0.35 l -1.36,-3.34 39.29,-15.88 1.35,3.35 c -1.06,0.43 -1.82,1.44 -2.28,3.02 -0.46,1.59 -0.73,3.81 -0.82,6.65 l -7.2,148.75 c -0.08,1.27 -0.17,2.41 -0.29,3.42 -0.12,1 -0.03,1.92 0.27,2.76 0.32,0.72 0.86,1.18 1.61,1.38 0.75,0.2 1.5,0.15 2.26,-0.14 l 1.35,3.35 -42.18,17.04 -1.35,-3.35 c 0.72,-0.34 1.23,-0.87 1.53,-1.6 0.29,-0.72 0.34,-1.35 0.14,-1.88 -0.41,-0.95 -0.97,-1.79 -1.68,-2.51 -0.7,-0.73 -1.42,-1.43 -2.15,-2.11 l -103.45,-99.27 c -2.86,-2.95 -5.16,-5.2 -6.92,-6.75 -1.75,-1.56 -3.79,-1.95 -6.11,-1.18 l -1.35,-3.35 37.35,-15.09"
         style="fill:#008940;fill-opacity:1;fill-rule:evenodd;stroke:none"
         id="path140" /><path
         d="m 4881.9,4004.48 0.69,-58.14 c 0.07,-2.76 0.15,-5.52 0.24,-8.3 0.09,-2.77 -0.22,-4.82 -0.93,-6.14 -0.38,-0.52 -0.82,-0.73 -1.32,-0.66 -0.5,0.08 -0.93,0.23 -1.28,0.48 l -1.96,-3.02 39.66,-25.76 1.97,3.02 c -1.63,1.11 -2.82,2.56 -3.58,4.39 -0.78,1.82 -1.19,3.78 -1.22,5.87 l -2.39,68.86 c 11.99,-6.02 23.47,-7.88 34.46,-5.58 10.98,2.3 19.86,8.49 26.65,18.56 9.52,14.95 10.89,29.02 4.1,42.22 -6.8,13.2 -20.24,26.19 -40.33,38.97 l -74.14,48.14 -1.96,-3.03 c 1.93,-1.21 2.93,-2.41 3.02,-3.59 0.09,-1.18 -0.53,-2.72 -1.84,-4.62 l -75.63,-116.46 c -1.2,-1.97 -2.36,-3.16 -3.48,-3.56 -1.11,-0.4 -2.61,0.03 -4.5,1.3 l -1.96,-3.03 35.08,-22.78 1.96,3.03 c -1.61,1 -2.42,2.08 -2.44,3.21 -0.02,1.14 0.61,2.66 1.91,4.57 l 30.61,47.13 z m -2.08,81.33 50.61,-32.86 c 9.19,-5.97 15.29,-11.96 18.27,-17.95 2.98,-6 2.6,-11.91 -1.12,-17.71 -3.57,-5.92 -8.05,-9.25 -13.45,-9.99 -5.41,-0.73 -12.82,1.95 -22.23,8.04 l -54.76,35.56 22.68,34.91"
         style="fill:#008940;fill-opacity:1;fill-rule:evenodd;stroke:none"
         id="path142" /><path
         d="m 5071,3964.73 c 1.44,1.82 2.78,2.8 4.06,2.96 1.27,0.17 2.92,-0.62 4.93,-2.35 l 2.33,2.76 -34.84,29.22 -2.31,-2.76 c 2.43,-2 3.69,-3.65 3.78,-4.95 0.08,-1.31 -0.66,-2.81 -2.22,-4.51 l -89.27,-106.38 c -1.4,-1.83 -2.75,-2.82 -4.05,-2.96 -1.3,-0.14 -3.14,0.82 -5.54,2.86 l -2.31,-2.76 34.83,-29.23 2.32,2.76 c -2.06,1.69 -3.12,3.17 -3.18,4.45 -0.06,1.29 0.67,2.79 2.21,4.51 l 89.26,106.38"
         style="fill:#008940;fill-opacity:1;fill-rule:evenodd;stroke:none"
         id="path144" /><path
         d="m 5133.14,3790.95 -35.46,38.02 59.41,20.21 z m -100.15,7.56 2.64,2.46 c -0.99,1.04 -1.52,2.03 -1.61,2.97 -0.1,0.95 0.32,1.86 1.27,2.74 0.27,0.34 1.21,0.82 2.84,1.43 1.61,0.6 4.93,1.79 9.94,3.54 5.01,1.76 12.75,4.54 23.2,8.33 l 51.06,-54.75 c -4.46,-10.7 -7.7,-18.54 -9.72,-23.53 -2.01,-4.99 -3.39,-8.27 -4.12,-9.85 -0.72,-1.58 -1.39,-2.6 -1.99,-3.06 -0.66,-0.61 -1.36,-0.84 -2.07,-0.69 -0.71,0.15 -1.43,0.61 -2.14,1.39 l -2.64,-2.47 28.9,-30.99 2.64,2.46 c -0.78,0.84 -1.05,2.08 -0.78,3.71 0.25,1.63 0.93,3.75 2.06,6.37 l 56.34,137.85 c 0.46,1.19 0.85,2.26 1.18,3.22 0.31,0.97 0.79,1.76 1.41,2.39 0.61,0.52 1.28,0.71 2.04,0.58 0.76,-0.14 1.43,-0.5 1.99,-1.08 l 2.64,2.46 -31.02,33.26 -2.64,-2.45 c 0.51,-0.62 0.75,-1.32 0.7,-2.1 -0.04,-0.78 -0.26,-1.37 -0.65,-1.77 -0.78,-0.68 -1.64,-1.21 -2.58,-1.57 -0.96,-0.35 -1.9,-0.69 -2.85,-1 l -135.72,-46.24 c -3.82,-1.46 -6.86,-2.53 -9.12,-3.2 -2.24,-0.68 -4.25,-0.17 -6.03,1.51 l -2.65,-2.45 27.48,-29.47"
         style="fill:#008940;fill-opacity:1;fill-rule:evenodd;stroke:none"
         id="path146" /><path
         d="m 5268.92,3703.22 -37.39,-139.91 c -0.51,-1.9 -0.99,-3.55 -1.43,-4.95 -0.44,-1.4 -0.94,-2.29 -1.46,-2.68 -0.69,-0.41 -1.38,-0.49 -2.09,-0.23 -0.71,0.26 -1.35,0.83 -1.92,1.72 l -3.05,-1.91 20.79,-33.28 3.05,1.92 c -0.9,1.4 -1.14,2.62 -0.68,3.67 0.45,1.06 1.66,2.19 3.63,3.38 l 117.77,73.59 c 1.94,1.25 3.49,1.84 4.64,1.79 1.14,-0.06 2.14,-0.8 2.99,-2.23 l 3.07,1.92 -19.14,30.62 -3.06,-1.91 c 0.84,-1.29 1.03,-2.45 0.57,-3.49 -0.47,-1.03 -1.69,-2.15 -3.65,-3.35 l -85.79,-53.61 34.86,132.19 c 0.36,1.51 0.65,2.82 0.87,3.92 0.21,1.1 0.72,1.94 1.54,2.5 0.76,0.46 1.42,0.59 1.95,0.37 0.54,-0.21 1.01,-0.66 1.41,-1.34 l 3.07,1.91 -23.41,37.46 -3.07,-1.91 c 0.85,-1.29 1.04,-2.44 0.57,-3.48 -0.47,-1.03 -1.68,-2.15 -3.65,-3.35 l -117.77,-73.59 c -1.94,-1.24 -3.48,-1.85 -4.62,-1.81 -1.13,0.03 -2.09,0.7 -2.88,2.03 l -3.05,-1.91 18.72,-29.96 3.05,1.91 c -0.71,1.08 -0.82,2.11 -0.32,3.09 0.5,0.99 1.73,2.09 3.69,3.3 l 92.19,57.61"
         style="fill:#008940;fill-opacity:1;fill-rule:evenodd;stroke:none"
         id="path148" /><path
         d="m 5461.14,3422.7 -3.45,-1.05 c 0.75,-2.41 0.76,-4.13 0.04,-5.16 -0.72,-1.02 -2.15,-1.82 -4.27,-2.39 l -90.03,-27.52 c -20.67,-6.64 -32.92,-18.04 -36.76,-34.2 -3.83,-16.16 -1.95,-36.02 5.65,-59.58 6.88,-23.78 16.42,-41.3 28.63,-52.55 12.21,-11.26 28.75,-13.86 49.6,-7.79 l 90.03,27.52 c 2.09,0.68 3.71,0.81 4.89,0.37 1.17,-0.44 2.07,-1.7 2.68,-3.77 l 3.45,1.05 -12.38,40.5 -3.45,-1.05 c 0.61,-1.95 0.56,-3.41 -0.19,-4.41 -0.73,-1 -2.15,-1.79 -4.25,-2.39 l -91.03,-27.83 c -10.91,-3.34 -19.75,-1.81 -26.53,4.61 -6.78,6.41 -12.48,17.47 -17.11,33.18 -4.95,15.61 -6.41,27.97 -4.37,37.08 2.03,9.11 8.51,15.33 19.42,18.65 l 91.02,27.83 c 2.09,0.67 3.71,0.82 4.86,0.46 1.15,-0.36 1.97,-1.4 2.48,-3.11 l 3.44,1.05 -12.37,40.5"
         style="fill:#008940;fill-opacity:1;fill-rule:evenodd;stroke:none"
         id="path150" /><path
         d="M 5489.84,3134.61 5393,3026.93 c -1.31,-1.47 -2.49,-2.72 -3.51,-3.77 -1.04,-1.05 -1.88,-1.62 -2.53,-1.72 -0.79,-0.06 -1.45,0.19 -1.96,0.74 -0.51,0.56 -0.82,1.36 -0.92,2.41 l -3.6,-0.32 3.42,-39.08 3.6,0.31 c -0.18,1.65 0.17,2.85 1.05,3.59 0.88,0.73 2.47,1.18 4.78,1.36 l 138.34,12.1 c 2.29,0.23 3.94,0.06 4.94,-0.51 0.99,-0.57 1.55,-1.69 1.66,-3.34 l 3.59,0.31 -3.14,35.97 -3.6,-0.32 c 0.17,-1.52 -0.19,-2.64 -1.07,-3.36 -0.89,-0.7 -2.48,-1.15 -4.79,-1.32 l -100.77,-8.82 91.06,101.95 c 1.02,1.18 1.88,2.21 2.58,3.1 0.68,0.89 1.52,1.39 2.5,1.52 0.89,0.07 1.53,-0.11 1.91,-0.55 0.38,-0.43 0.59,-1.04 0.64,-1.83 l 3.6,0.31 -3.85,44 -3.59,-0.31 c 0.16,-1.53 -0.2,-2.65 -1.08,-3.36 -0.89,-0.7 -2.47,-1.15 -4.77,-1.33 l -138.35,-12.1 c -2.3,-0.22 -3.94,-0.06 -4.93,0.48 -1,0.54 -1.55,1.58 -1.65,3.12 l -3.6,-0.31 3.09,-35.2 3.59,0.31 c -0.15,1.29 0.23,2.26 1.11,2.91 0.89,0.66 2.49,1.08 4.79,1.27 l 108.3,9.47"
         style="fill:#008940;fill-opacity:1;fill-rule:evenodd;stroke:none"
         id="path152" /><path
         d="m 5528.5,2890.91 c 2.31,-0.02 3.93,-0.47 4.83,-1.38 0.91,-0.91 1.31,-2.68 1.19,-5.34 l 3.61,-0.13 1.57,45.44 -3.6,0.13 c -0.08,-3.13 -0.61,-5.16 -1.57,-6.02 -0.98,-0.86 -2.62,-1.22 -4.92,-1.04 l -138.79,4.85 c -2.3,-0.03 -3.91,0.44 -4.83,1.37 -0.91,0.94 -1.29,2.98 -1.15,6.12 l -3.61,0.13 -1.58,-45.44 3.61,-0.13 c 0.05,2.67 0.57,4.41 1.55,5.25 0.97,0.84 2.61,1.19 4.91,1.03 l 138.78,-4.84"
         style="fill:#008940;fill-opacity:1;fill-rule:evenodd;stroke:none"
         id="path154" /><path
         d="m 5498.03,2733.7 c -3.44,-20.04 -11.13,-35.3 -23.09,-45.77 -11.95,-10.48 -26.36,-14.53 -43.23,-12.18 -16.78,2.97 -29.23,11.29 -37.36,24.94 -8.14,13.65 -10.73,30.55 -7.8,50.68 3.43,20.04 11.13,35.3 23.08,45.77 11.95,10.48 26.37,14.53 43.23,12.18 16.77,-2.97 29.23,-11.28 37.35,-24.95 8.14,-13.65 10.75,-30.53 7.82,-50.67 m 25.14,-3.97 c 2.87,19.09 1.89,36.41 -2.91,51.98 -4.8,15.56 -12.62,28.37 -23.47,38.43 -10.85,10.05 -23.92,16.38 -39.21,18.93 -15.33,2.29 -29.72,0.33 -43.14,-5.88 -13.43,-6.22 -24.83,-15.98 -34.2,-29.3 -9.38,-13.32 -15.65,-29.51 -18.83,-48.55 -2.86,-19.08 -1.9,-36.41 2.91,-51.97 4.79,-15.57 12.62,-28.38 23.47,-38.44 10.85,-10.06 23.91,-16.37 39.2,-18.94 15.34,-2.28 29.72,-0.31 43.15,5.89 13.42,6.21 24.82,15.98 34.2,29.3 9.37,13.32 15.64,29.51 18.83,48.55"
         style="fill:#008940;fill-opacity:1;fill-rule:evenodd;stroke:none"
         id="path156" /><path
         d="m 5431.75,2544.12 -134.23,-54.34 c -1.83,-0.73 -3.44,-1.34 -4.82,-1.84 -1.38,-0.49 -2.4,-0.64 -3.02,-0.44 -0.74,0.29 -1.22,0.81 -1.44,1.53 -0.22,0.72 -0.15,1.57 0.22,2.56 l -3.37,1.29 -14.05,-36.62 3.36,-1.29 c 0.56,1.56 1.4,2.48 2.52,2.75 1.12,0.28 2.75,-0.02 4.89,-0.87 l 129.65,-49.76 c 2.16,-0.8 3.56,-1.68 4.21,-2.63 0.64,-0.95 0.66,-2.2 0.03,-3.73 l 3.36,-1.29 12.94,33.7 -3.37,1.3 c -0.5,-1.45 -1.32,-2.3 -2.43,-2.55 -1.11,-0.25 -2.73,0.05 -4.88,0.89 l -94.44,36.26 126.54,51.71 c 1.44,0.62 2.66,1.18 3.66,1.66 1.01,0.5 1.98,0.59 2.93,0.27 0.83,-0.33 1.32,-0.76 1.48,-1.32 0.14,-0.57 0.07,-1.21 -0.23,-1.93 l 3.37,-1.31 15.83,41.24 -3.37,1.29 c -0.53,-1.44 -1.34,-2.29 -2.44,-2.54 -1.1,-0.25 -2.73,0.06 -4.86,0.91 l -129.66,49.76 c -2.16,0.8 -3.58,1.67 -4.23,2.6 -0.65,0.91 -0.69,2.09 -0.11,3.51 l -3.37,1.3 -12.65,-32.98 3.36,-1.29 c 0.44,1.21 1.19,1.92 2.28,2.11 1.09,0.2 2.7,-0.12 4.86,-0.95 l 101.48,-38.96"
         style="fill:#008940;fill-opacity:1;fill-rule:evenodd;stroke:none"
         id="path158" /><path
         d="m 3171.2,2300.4 c 19.57,0 35.43,-15.87 35.43,-35.44 0,-19.57 -15.86,-35.43 -35.43,-35.43 -19.57,0 -35.44,15.86 -35.44,35.43 0,19.57 15.87,35.44 35.44,35.44"
         style="fill:#008940;fill-opacity:1;fill-rule:evenodd;stroke:none"
         id="path160" /><path
         d="m 5236.88,2301.98 c 19.57,0 35.44,-15.86 35.44,-35.43 0,-19.57 -15.87,-35.44 -35.44,-35.44 -19.56,0 -35.43,15.87 -35.43,35.44 0,19.57 15.87,35.43 35.43,35.43"
         style="fill:#008940;fill-opacity:1;fill-rule:evenodd;stroke:none"
         id="path162" /><path
         d="m 3349.08,2172.67 53.65,-49.48 -3.17,-3.44 c -2.27,2.09 -7.1,6.55 -9.75,3.68 -2.91,-3.16 -35.91,-86.25 -41.86,-96.68 l 0.58,-0.53 c 32.4,15.22 94.56,43.31 96.94,45.9 2.65,2.86 -2.18,7.32 -3.89,8.88 l 3.17,3.44 47.41,-43.72 -3.17,-3.43 c -3.38,2.58 -6.16,3.56 -9.66,1.47 -14.79,-8.64 -143.94,-67.8 -146.05,-70.1 -2.91,-3.15 -1.09,-8.01 1.72,-10.07 l -3.17,-3.44 -59.9,55.23 3.17,3.44 c 2.29,-2.65 7.28,-4.06 10.19,-0.91 1.06,1.14 65.71,144.18 64.12,150.43 -0.95,3.54 -2.1,4.58 -3.5,5.89 l 3.17,3.44"
         style="fill:#008940;fill-opacity:1;fill-rule:nonzero;stroke:none"
         id="path164" /><path
         d="m 3439.71,1946.96 26.26,37.79 83.08,-57.75 -26.26,-37.79 -83.08,57.75"
         style="fill:#008940;fill-opacity:1;fill-rule:nonzero;stroke:none"
         id="path166" /><path
         d="m 3607.79,1950.27 c 2.47,4.87 -1.13,8.01 -6.12,10.98 l 2.12,4.18 64.39,-32.71 -2.12,-4.17 c -5,2.1 -9.67,3.15 -12.14,-1.71 l -54.41,-107.1 94.35,-47.93 c 2.76,-1.4 6.91,-1.76 10.61,5.54 l 4.14,-2.09 -26.84,-52.86 -4.14,2.1 c 3.7,7.3 0.97,10.44 -1.79,11.84 l -149.78,76.09 2.12,4.17 c 5.35,-2.27 10.01,-3.33 12.48,1.55 l 67.13,132.12"
         style="fill:#008940;fill-opacity:1;fill-rule:nonzero;stroke:none"
         id="path168" /><path
         d="m 3873.35,1735.8 -11.97,74.62 -49.56,-56.62 z m 0.91,-65.68 1.32,4.49 c 1.48,-0.44 4.81,-1.42 5.8,1.96 1.2,4.12 -2.68,21.11 -3.31,28.6 l -86,25.14 c -4.19,-6.07 -16.98,-18.18 -18.19,-22.3 -0.98,-3.38 2.35,-4.36 3.83,-4.79 l -1.31,-4.49 -55.6,16.27 1.31,4.48 c 2.96,-0.87 6.63,-0.71 8.52,1.59 50.12,61.32 105.94,124.24 107.47,129.48 0.77,2.62 -0.12,3.69 -3.72,5.15 l 1.31,4.5 77.47,-22.66 -1.31,-4.49 c -3.82,0.7 -5.15,0.27 -5.92,-2.34 -1.31,-4.49 19.82,-124.86 24.85,-168.18 0.35,-2.95 3.36,-5.05 6.32,-5.92 l -1.31,-4.49 -61.53,18"
         style="fill:#008940;fill-opacity:1;fill-rule:nonzero;stroke:none"
         id="path170" /><path
         d="m 4065.17,1738.11 45.76,-4.28 c 19.99,-1.88 26.16,6.17 27.11,16.27 1.45,15.53 -6.71,19.42 -23.63,21 l -45.76,4.29 z m -6.4,-68.34 41.91,-3.93 c 17.69,-1.65 32.43,2.45 33.88,17.99 1.96,20.97 -14.95,22.55 -29.96,23.95 l -41.9,3.92 z m -39.69,131.4 c 0.5,5.43 -3.99,7.03 -11.64,8.14 l 0.43,4.67 115.74,-10.83 c 46.14,-4.31 63.87,-13.8 60.64,-48.36 -1.53,-16.31 -14.41,-29.61 -28.87,-34.91 19.76,-8.51 29.38,-21.94 27.28,-44.47 -2.84,-30.28 -25.03,-47.8 -73.49,-43.27 l -117.28,10.97 0.44,4.66 c 7.72,-0.33 12.44,0.41 12.95,5.84 l 13.8,147.56"
         style="fill:#008940;fill-opacity:1;fill-rule:nonzero;stroke:none"
         id="path172" /><path
         d="m 4400.83,1675.37 c 4.62,0.41 8.23,3.46 9.16,10.59 l 4.63,0.39 4.49,-52.07 -3.85,-0.33 c -3.3,6.77 -5.32,7.77 -11.48,7.24 l -171.61,-14.78 -0.4,4.67 c 5.36,0.85 10.64,2.48 10.17,7.93 l -12.71,147.65 c -0.47,5.45 -5.96,6.13 -11.38,6.06 l -0.41,4.66 174.7,15.04 c 3.07,0.27 6.78,2.16 6.18,9.15 l 4.63,0.4 4.48,-52.07 -4.63,-0.39 c -0.67,7.77 -4.64,8.99 -7.72,8.72 l -112.36,-9.67 2.72,-31.48 72.33,6.23 c 3.08,0.27 6.8,2.16 6.17,9.54 l 4.6,0.39 4.36,-50.5 -4.62,-0.4 c -0.63,7.38 -4.62,8.6 -7.69,8.34 l -72.35,-6.24 3.32,-38.47 109.27,9.4"
         style="fill:#008940;fill-opacity:1;fill-rule:nonzero;stroke:none"
         id="path174" /><path
         d="m 4444.55,1810.47 c -1.42,5.28 -6.2,5.22 -11.89,4.08 l -1.21,4.52 69.77,18.69 1.21,-4.53 c -5.13,-1.76 -9.3,-4.09 -7.89,-9.38 l 31.06,-116.04 102.22,27.37 c 2.99,0.8 6.32,3.3 4.2,11.21 l 4.48,1.21 15.33,-57.27 -4.48,-1.19 c -2.12,7.89 -6.25,8.41 -9.23,7.61 l -162.29,-43.45 -1.21,4.53 c 5.49,1.88 9.67,4.2 8.26,9.48 l -38.33,143.16"
         style="fill:#008940;fill-opacity:1;fill-rule:nonzero;stroke:none"
         id="path176" /><path
         d="m 4741.34,1769.79 c 6.45,-15.48 -0.98,-33.79 -16.3,-40.18 -15.33,-6.4 -33.58,1.22 -40.03,16.69 -6.46,15.49 0.98,33.8 16.31,40.2 15.32,6.38 33.56,-1.23 40.02,-16.71"
         style="fill:#008940;fill-opacity:1;fill-rule:nonzero;stroke:none"
         id="path178" /><path
         d="m 4939.67,1884.44 c 3.98,2.36 5.9,6.67 3.64,13.5 l 3.98,2.37 26.74,-44.9 -3.31,-1.97 c -5.92,4.65 -8.18,4.67 -13.49,1.5 l -147.99,-88.12 -2.4,4.02 c 4.45,3.11 8.5,6.88 5.71,11.56 l -75.82,127.35 c -2.79,4.69 -8.04,2.93 -12.89,0.49 l -2.39,4.02 150.64,89.71 c 2.66,1.58 5.18,4.88 1.58,10.91 l 3.99,2.39 26.73,-44.92 -3.98,-2.37 c -3.98,6.7 -8.11,6.08 -10.76,4.49 l -96.9,-57.69 16.18,-27.14 62.38,37.14 c 2.65,1.58 5.17,4.9 1.39,11.27 l 3.96,2.37 25.94,-43.56 -3.97,-2.37 c -3.79,6.37 -7.91,5.73 -10.56,4.14 l -62.39,-37.14 19.75,-33.17 94.24,56.12"
         style="fill:#008940;fill-opacity:1;fill-rule:nonzero;stroke:none"
         id="path180" /><path
         d="m 4922.56,2025.32 c -3.65,4.07 -8.17,1.57 -13.02,-2.27 l -3.13,3.47 51.68,46.51 3.12,-3.48 c -1.45,-1.84 -3.84,-5.54 -0.18,-9.61 l 63.39,-70.45 c 13.3,-14.78 30.58,-9.73 47.23,5.26 16.65,14.98 23.5,31.63 10.19,46.41 l -63.39,70.45 c -3.66,4.07 -7.6,2.08 -9.58,0.82 l -3.14,3.48 51.68,46.5 3.13,-3.47 c -4.33,-4.43 -7.29,-8.65 -3.63,-12.71 l 57.4,-63.78 c 27.65,-30.73 34.48,-71.8 -16.05,-117.27 -50.52,-45.47 -90.65,-34.37 -118.31,-3.64 l -57.39,63.78"
         style="fill:#008940;fill-opacity:1;fill-rule:nonzero;stroke:none"
         id="path182" /><path
         d="m 4358.5,2023.35 h 10.8 c 12.59,0 22.79,4.2 22.79,14.41 0,8.99 -6.59,15 -21,15 -5.99,0 -10.19,-0.61 -12.59,-1.21 z m -0.61,-55.19 h -22.79 v 97.79 c 8.99,1.81 21.6,3.6 37.79,3.6 18.6,0 27,-3 34.2,-7.8 5.4,-4.2 9.6,-12 9.6,-21 0,-11.39 -8.4,-19.8 -20.4,-23.4 v -1.2 c 9.61,-2.99 15,-10.8 18.01,-24 2.99,-15 4.79,-21 7.19,-23.99 h -24.6 c -2.99,3.6 -4.8,12 -7.8,23.39 -1.8,10.8 -7.79,15.6 -20.4,15.6 h -10.8 z m 15,129.59 c -43.19,0 -75.6,-35.4 -75.6,-78.6 0,-43.8 32.41,-78.59 76.8,-78.59 43.2,-0.61 75,34.79 75,78.59 0,43.2 -31.8,78.6 -75.59,78.6 z m 1.2,19.8 c 56.4,0 100.2,-43.8 100.2,-98.4 0,-55.8 -43.8,-98.99 -100.79,-98.99 -56.4,0 -101.4,43.19 -101.4,98.99 0,54.6 45,98.4 101.4,98.4 h 0.59"
         style="fill:#008940;fill-opacity:1;fill-rule:nonzero;stroke:none"
         id="path184" /><path
         d="M 2759.6,1448.89 H 5594.89 V 852.352 H 2759.6 v 596.538"
         style="fill:#fff200;fill-opacity:1;fill-rule:evenodd;stroke:none"
         id="path186" /><path
         d="m 2953.85,937.102 v 9.5 c 9.5,1.589 11.88,3.968 11.88,7.128 0,7.129 -141.76,327.07 -159.18,368.25 -7.13,17.43 -10.29,21.38 -18.21,22.17 v 9.5 h 162.34 v -9.5 c -12.67,-0.79 -15.84,-3.95 -15.84,-9.5 0,-6.34 11.88,-25.34 110.88,-240.74 94.24,209.06 106.91,232.03 106.91,241.53 0,5.55 -2.38,7.92 -11.88,8.71 v 9.5 h 136.21 v -9.5 c -6.33,-1.58 -9.5,-3.16 -11.88,-10.29 -7.92,-25.34 -159.18,-368.251 -159.18,-379.34 0,-3.95 3.96,-7.129 11.09,-7.129 v -10.289 h -163.14"
         style="fill:#008940;fill-opacity:1;fill-rule:nonzero;stroke:none"
         id="path188" /><path
         d="m 3682.47,1089.15 h -9.51 c -2.37,10.29 -7.92,18.21 -23.76,18.21 h -147.29 v -73.65 h 254.21 c 8.71,0 11.88,3.97 14.25,23.76 h 9.5 V 919.68 h -9.5 c -2.37,13.468 -5.54,17.422 -14.25,17.422 h -395.18 v 9.5 c 19.8,1.589 22.18,7.128 22.18,14.257 V 1329.9 c 0,7.12 -2.38,12.67 -22.18,14.25 v 9.5 h 395.18 c 8.71,0 11.88,3.97 14.25,22.18 h 9.5 v -137.79 h -9.5 c -2.37,18.21 -5.54,22.17 -14.25,22.17 h -254.21 v -65.74 h 147.29 c 15.84,0 21.39,7.92 23.76,18.23 h 9.51 v -123.55"
         style="fill:#008940;fill-opacity:1;fill-rule:nonzero;stroke:none"
         id="path190" /><path
         d="m 4238.44,1088.36 h -102.16 c -8.71,0 -11.08,-6.34 -11.88,-15.84 h -9.5 v 110.87 h 9.5 c 0.8,-10.29 3.17,-14.26 11.88,-14.26 h 233.62 v -9.5 c -9.5,-0.79 -12.67,-4.75 -12.67,-13.46 v -131.46 c 0,-7.13 1.59,-13.46 9.51,-13.46 h 3.95 v -9.512 c -71.27,-39.59 -157.59,-59.386 -255,-59.386 -132.25,0 -257.37,69.688 -257.37,213.028 0,143.34 125.12,213.03 257.37,213.03 52.27,0 75.24,-3.97 129.09,-19 26.13,-7.13 51.47,-20.6 57.81,-20.6 4.75,0 8.71,3.17 11.08,6.34 l 9.5,-3.17 -51.47,-104.54 -9.5,5.55 c 0.79,1.58 1.58,4.75 1.58,8.71 0,15.05 -78.4,38.01 -144.13,38.01 -75.23,0 -144.13,-40.38 -144.13,-125.92 0,-85.53 83.15,-122.74 152.05,-122.74 43.56,0 78.4,5.54 110.87,15.05 v 52.26"
         style="fill:#008940;fill-opacity:1;fill-rule:nonzero;stroke:none"
         id="path192" /><path
         d="m 4600.39,1090.73 h 147.31 l -76.83,188.49 z m -19.79,-63.35 c -20.6,-57.81 -25.35,-68.099 -25.35,-72.86 0,-4.75 3.17,-7.918 14.25,-7.918 v -9.5 h -140.16 v 9.5 c 11.08,2.378 15.84,5.546 20.58,18.218 7.13,18.211 140.97,366.67 140.97,371.41 0,5.55 -8.71,7.13 -15.84,7.92 v 9.5 h 206.7 v -9.5 c -8.71,-0.79 -14.26,-2.37 -14.26,-10.29 0,-6.34 97.4,-243.13 146.5,-363.501 7.92,-19 12.68,-23.757 22.18,-23.757 v -9.5 h -156.01 v 9.5 c 11.09,0.789 15.05,4.757 15.05,9.5 0,3.179 -23.76,60.978 -26.93,71.278 H 4580.6"
         style="fill:#008940;fill-opacity:1;fill-rule:nonzero;stroke:none"
         id="path194" /><path
         d="m 5055,1329.9 c 0,7.12 -2.37,12.67 -22.17,14.25 v 9.5 h 190.85 v -9.5 c -18.21,-0.79 -22.17,-5.54 -22.17,-10.29 0,-8.71 137.01,-154.42 192.44,-215.41 v 211.45 c 0,9.51 -6.33,13.46 -16.64,14.25 v 9.5 h 144.94 v -9.5 c -19.81,-1.58 -22.18,-7.13 -22.18,-14.25 V 960.859 c 0,-7.129 2.37,-12.668 22.18,-14.257 v -9.5 h -150.47 v 9.5 c 14.25,0 18.21,3.168 18.21,8.707 0,10.3 -19.79,20.601 -228.87,254.211 V 960.859 c 0,-7.129 2.38,-12.668 22.17,-14.257 v -9.5 h -150.46 v 9.5 c 19.8,1.589 22.17,7.128 22.17,14.257 V 1329.9"
         style="fill:#008940;fill-opacity:1;fill-rule:nonzero;stroke:none"
         id="path196" /></g></g></svg>
