<svg version="1.1" xmlns="http://www.w3.org/2000/svg"  x="0px" y="0px" viewBox="0 0 66.4 62.417" enable-background="new 0 0 66.4 62.417" xml:space="preserve">

	<path d="M41,0.01c2.079-0.113,3.592,0.709,4.197,2.755c5.514,18.629,15.733,35.52,20.124,54.553
		c0.341,1.479,2.058,3.223,0.295,4.572c-1.975,1.511-3.316-0.615-4.72-1.564c-9.241-6.245-17.974-13.084-25.896-21.003
		c-8.835-8.832-18.889-16.246-28.923-23.652c-1.467-1.083-2.871-2.262-4.22-3.489c-1.086-0.987-2.384-2.032-1.636-3.775
		C0.869,6.9,2.129,6.319,3.799,6.207C15.9,5.397,28.025,4.685,39.535,0.284C39.993,0.109,40.511,0.093,41,0.01z M11.323,16.704
		c18.729,12.471,32.234,31.049,52.354,42.737c-0.491-1.853-0.801-2.939-1.067-4.035C58.63,39.016,50.44,24.23,44.758,8.49
		c-1.381-3.825-2.901-0.686-3.847,0.052C32.236,15.316,22.993,19.803,11.323,16.704z M3.07,8.931
		c4.955,2.141,8.944,6.093,14.537,6.494c10.019,0.719,17.31-4.734,24.47-10.554c0.664-0.54,1.271-1.282,0.73-2.122
		c-0.643-1-1.779-0.786-2.721-0.525c-3.511,0.975-6.971,2.141-10.502,3.028C20.916,7.431,11.942,7.366,3.07,8.931z"/>
</svg>