<?xml version="1.0" standalone="no"?>
<!DOCTYPE svg PUBLIC "-//W3C//DTD SVG 20010904//EN"
 "http://www.w3.org/TR/2001/REC-SVG-20010904/DTD/svg10.dtd">
<svg version="1.0" xmlns="http://www.w3.org/2000/svg"
 width="1024.000000pt" height="509.000000pt" viewBox="0 0 1024.000000 509.000000"
 preserveAspectRatio="xMidYMid meet">

<g transform="translate(0.000000,509.000000) scale(0.100000,-0.100000)"
fill="#FE3432" stroke="none">
<path d="M9775 4524 c-126 -18 -284 -42 -350 -53 -66 -11 -149 -23 -185 -26
-36 -3 -101 -12 -145 -20 -44 -8 -213 -33 -375 -55 -162 -22 -322 -45 -355
-50 -122 -21 -1401 -203 -1417 -202 -10 0 -20 -4 -23 -9 -4 -5 -10 -7 -15 -4
-5 3 -71 -4 -147 -15 -76 -11 -199 -29 -273 -40 -74 -11 -218 -31 -320 -45
-102 -15 -246 -35 -320 -46 -74 -11 -187 -26 -250 -34 -63 -8 -121 -17 -130
-20 -8 -2 -85 -14 -170 -25 -85 -12 -198 -27 -250 -35 -418 -58 -623 -88 -730
-104 -69 -11 -244 -36 -390 -56 -146 -20 -280 -41 -298 -46 -17 -6 -60 -12
-94 -14 -34 -2 -121 -13 -193 -24 -126 -20 -366 -54 -490 -71 -155 -21 -1897
-271 -1945 -279 -30 -6 -107 -17 -170 -26 -235 -33 -256 -36 -281 -46 -30 -12
-52 -51 -42 -76 8 -20 154 -285 428 -773 103 -184 241 -429 305 -545 65 -115
127 -228 140 -250 65 -118 87 -135 165 -135 36 0 1202 135 1560 180 82 11 565
68 1010 120 426 50 1902 224 2705 320 234 28 785 93 1225 145 1533 182 1449
171 1493 194 23 12 48 31 56 44 8 12 74 222 146 467 72 245 177 598 232 785
55 187 106 360 113 385 6 25 17 61 24 80 16 50 70 234 88 302 37 139 2 150
-332 102z m301 -28 c14 -20 18 -3 -72 -311 -68 -233 -87 -296 -240 -820 -53
-181 -107 -366 -120 -410 -14 -44 -27 -89 -29 -100 -16 -70 -129 -442 -138
-453 -24 -30 -73 -42 -238 -62 -96 -12 -379 -45 -629 -75 -250 -30 -720 -86
-1045 -124 -324 -39 -1011 -120 -1525 -181 -1041 -123 -1281 -152 -1515 -180
-88 -11 -351 -42 -585 -70 -234 -28 -537 -64 -675 -80 -137 -16 -439 -52 -670
-80 -231 -27 -456 -52 -500 -55 -44 -3 -96 -10 -115 -14 -65 -16 -138 -22
-145 -11 -4 7 -13 6 -28 -1 -12 -7 -39 -13 -62 -15 -42 -3 -57 -5 -165 -23
-71 -12 -153 -14 -186 -5 -15 4 -69 92 -194 317 -403 725 -605 1086 -640 1147
-89 153 -120 221 -110 240 6 10 18 21 27 24 25 7 179 32 288 46 50 7 111 15
137 20 32 5 49 4 52 -4 3 -8 7 -8 13 0 4 7 43 17 86 24 75 12 107 8 77 -10 -8
-5 -11 -13 -6 -17 5 -4 11 -2 13 5 3 6 9 9 15 6 5 -3 8 2 6 12 -3 16 14 21
147 41 83 12 175 23 205 25 30 2 57 5 60 8 5 6 1211 181 1275 185 17 2 41 6
55 9 14 4 45 8 70 10 25 2 78 9 119 16 40 6 84 10 97 7 13 -2 25 0 26 4 2 5
31 12 66 17 48 7 67 6 82 -5 17 -12 20 -12 20 0 0 7 6 14 13 14 6 0 26 3 42 7
17 3 53 8 80 12 28 3 70 9 95 14 53 11 83 17 170 30 83 13 791 115 975 140 77
11 408 58 735 105 377 54 596 82 598 75 5 -14 23 -13 19 1 -1 6 4 14 11 16 6
3 12 0 12 -6 0 -17 37 -13 44 4 3 9 18 15 36 15 18 0 29 -4 25 -10 -3 -5 3
-10 14 -10 11 0 24 6 28 14 8 13 193 44 483 81 69 9 166 23 215 31 280 46
1060 152 1063 144 2 -6 9 -4 17 3 11 12 229 46 326 52 20 1 42 6 49 10 9 6 11
4 5 -6 -6 -11 -5 -12 6 -1 16 14 33 16 24 2 -9 -15 22 -12 38 4 7 8 52 19 98
25 189 25 231 31 239 36 4 3 11 -1 13 -7 4 -10 8 -10 14 -1 9 13 52 22 143 28
36 2 97 8 135 13 59 7 72 6 82 -7 10 -14 11 -13 6 6 -4 19 -1 23 18 22 13 -1
53 4 89 11 189 37 625 99 674 96 32 -2 54 -9 62 -20z"/>
<path d="M9773 4433 c9 -2 23 -2 30 0 6 3 -1 5 -18 5 -16 0 -22 -2 -12 -5z"/>
<path d="M8675 4290 c-3 -5 -1 -10 4 -10 6 0 11 5 11 10 0 6 -2 10 -4 10 -3 0
-8 -4 -11 -10z"/>
<path d="M8138 4193 c7 -3 16 -2 19 1 4 3 -2 6 -13 5 -11 0 -14 -3 -6 -6z"/>
<path d="M9878 4033 c6 -2 18 -2 25 0 6 3 1 5 -13 5 -14 0 -19 -2 -12 -5z"/>
<path d="M6578 4013 c6 -2 18 -2 25 0 6 3 1 5 -13 5 -14 0 -19 -2 -12 -5z"/>
<path d="M7783 4008 c-60 -9 -61 -10 -68 -45 -4 -25 -2 -40 10 -53 22 -24 45
-104 45 -155 0 -55 19 -82 48 -66 16 8 22 24 27 68 4 32 13 102 19 156 7 53
10 99 8 102 -6 6 -6 6 -89 -7z"/>
<path d="M6458 3993 c7 -3 16 -2 19 1 4 3 -2 6 -13 5 -11 0 -14 -3 -6 -6z"/>
<path d="M7525 3971 c-60 -9 -116 -20 -122 -24 -7 -5 -13 -25 -13 -45 0 -50
-50 -721 -55 -749 -3 -12 -14 -25 -25 -28 -25 -8 -41 -37 -30 -55 7 -11 33
-10 159 5 83 10 161 23 173 29 33 17 35 44 4 56 -18 7 -26 17 -26 34 0 13 16
185 35 382 39 402 40 414 23 413 -7 -1 -62 -9 -123 -18z"/>
<path d="M6035 3940 c-8 -13 5 -13 25 0 13 8 13 10 -2 10 -9 0 -20 -4 -23 -10z"/>
<path d="M7260 3933 c-67 -10 -69 -11 -74 -56 -3 -23 -8 -92 -11 -153 -5 -95
-4 -112 10 -117 27 -11 45 4 55 47 26 100 45 150 72 187 16 22 28 52 28 69 0
32 -9 34 -80 23z"/>
<path d="M6990 3896 c-41 -6 -81 -15 -87 -19 -23 -15 -14 -51 16 -69 49 -27
53 -65 41 -351 -10 -244 -11 -254 -38 -307 -18 -38 -40 -64 -69 -83 -34 -23
-43 -34 -43 -58 0 -34 0 -34 48 -10 68 35 120 109 141 202 6 24 15 150 21 279
6 129 15 252 21 273 5 21 26 56 45 77 20 22 34 47 32 57 -4 23 -31 24 -128 9z"/>
<path d="M6561 3836 c-122 -18 -157 -26 -167 -41 -18 -24 -14 -37 17 -52 33
-17 37 -55 38 -390 l1 -282 31 -35 c51 -58 157 -88 248 -70 42 9 42 45 1 84
l-31 29 3 340 3 340 35 30 c29 25 33 32 24 48 -15 24 -25 24 -203 -1z"/>
<path d="M5980 3740 c0 -22 9 -40 28 -58 28 -26 29 -31 35 -157 4 -71 10 -225
13 -341 7 -209 7 -211 -15 -233 -15 -15 -21 -32 -19 -51 l3 -28 55 21 c101 37
188 150 221 287 20 79 17 251 -4 323 -21 68 -59 141 -96 180 -36 40 -113 77
-172 84 l-49 6 0 -33z"/>
<path d="M5863 3741 c-129 -59 -214 -205 -229 -389 -19 -254 119 -481 294
-482 40 0 42 1 42 29 0 21 -6 32 -20 36 -31 10 -38 57 -55 387 -16 312 -16
328 19 358 19 15 22 80 4 80 -7 0 -32 -9 -55 -19z"/>
<path d="M8097 3699 c-16 -27 -39 -54 -50 -59 -12 -5 -39 -15 -59 -22 l-38
-14 32 -38 c30 -37 31 -39 19 -88 -6 -28 -9 -53 -7 -55 2 -3 26 8 51 23 50 29
46 29 133 -3 9 -4 12 11 12 53 0 56 2 61 45 105 l45 47 -55 7 c-53 6 -54 7
-71 51 -9 24 -19 44 -23 44 -3 0 -19 -23 -34 -51z"/>
<path d="M4018 3613 c6 -2 18 -2 25 0 6 3 1 5 -13 5 -14 0 -19 -2 -12 -5z"/>
<path d="M4850 3568 c0 -28 10 -42 32 -51 38 -14 50 -56 89 -324 46 -322 47
-337 15 -366 -18 -17 -23 -29 -19 -50 4 -23 9 -26 27 -21 91 26 170 97 213
191 52 113 39 292 -31 439 -64 134 -155 204 -268 204 -54 0 -58 -2 -58 -22z"/>
<path d="M4622 3561 c-68 -11 -117 -23 -122 -31 -12 -19 -1 -39 31 -56 34 -17
27 11 89 -349 28 -159 52 -298 54 -309 3 -11 -5 -27 -20 -41 -27 -25 -30 -38
-11 -53 18 -15 277 17 277 35 0 11 -38 269 -95 643 -13 91 -25 168 -25 173 0
10 -49 7 -178 -12z"/>
<path d="M4047 3480 c-141 -22 -147 -24 -147 -50 0 -14 11 -26 34 -35 19 -8
37 -23 40 -32 2 -10 37 -160 76 -333 72 -314 72 -315 51 -329 -25 -16 -27 -46
-5 -55 14 -6 229 18 260 29 8 2 0 61 -27 187 -21 101 -55 265 -75 366 l-37
183 22 23 c13 13 21 32 19 43 -5 25 -62 26 -211 3z"/>
<path d="M3520 3389 c6 -19 10 -34 10 -35 0 -1 9 -4 19 -7 10 -2 26 -15 34
-28 17 -27 170 -600 170 -637 0 -13 -7 -30 -15 -39 -19 -18 -11 -63 11 -63 31
0 117 58 143 97 39 58 52 109 52 203 -1 270 -178 521 -380 538 l-53 4 9 -33z"/>
<path d="M3405 3393 c-44 -23 -83 -62 -113 -113 -22 -37 -27 -59 -30 -136 -5
-101 6 -166 44 -266 43 -115 136 -228 218 -268 47 -22 152 -47 161 -38 11 11
-7 56 -25 61 -10 2 -25 15 -33 28 -17 27 -177 596 -177 630 0 12 7 30 15 39
10 11 13 27 9 48 -7 36 -23 40 -69 15z"/>
<path d="M3020 3332 c0 -28 -17 -31 -75 -16 -27 8 -60 14 -73 14 -19 0 -22 -4
-16 -27 9 -38 13 -43 30 -43 48 0 146 -81 187 -155 14 -25 31 -41 45 -43 19
-3 22 1 21 30 0 18 -17 83 -37 143 -31 93 -40 110 -59 113 -17 3 -23 -2 -23
-16z"/>
<path d="M2745 3306 c-38 -17 -90 -72 -104 -109 -27 -70 -4 -191 52 -273 47
-71 123 -119 249 -159 60 -19 121 -42 137 -51 55 -33 67 -101 25 -145 -19 -20
-23 -33 -19 -51 6 -24 8 -25 47 -15 54 14 122 80 137 132 15 54 14 92 -4 152
-36 121 -119 190 -295 247 -125 40 -155 57 -176 97 -20 39 -18 72 7 103 16 21
19 32 11 54 -10 32 -26 36 -67 18z"/>
<path d="M1390 3269 c0 -7 3 -9 7 -6 3 4 13 1 21 -6 13 -10 14 -9 10 3 -6 19
-38 26 -38 9z"/>
<path d="M9413 3256 c-45 -6 -85 -14 -88 -18 -4 -3 -28 -89 -54 -189 -36 -135
-50 -177 -55 -159 -3 14 -17 91 -29 173 -13 81 -26 150 -29 153 -7 7 -204 -17
-219 -27 -9 -5 -191 -799 -185 -806 1 -1 49 3 106 10 l105 12 39 168 c22 92
43 167 46 167 3 0 16 -71 28 -157 13 -87 24 -158 25 -159 1 -1 47 5 102 12 55
7 105 13 111 14 6 0 24 44 38 98 72 257 196 712 196 717 0 7 -42 4 -137 -9z"/>
<path d="M924 3191 c3 -5 15 -11 26 -14 17 -4 19 -3 9 9 -12 15 -44 20 -35 5z"/>
<path d="M898 3173 c7 -3 16 -2 19 1 4 3 -2 6 -13 5 -11 0 -14 -3 -6 -6z"/>
<path d="M8453 3145 c-142 -32 -256 -125 -286 -232 -23 -85 -67 -379 -67 -452
0 -58 3 -66 33 -96 50 -50 121 -63 242 -43 164 27 276 106 309 218 23 79 86
375 93 440 7 74 -13 118 -69 150 -52 29 -164 36 -255 15z m60 -149 c6 -15 -76
-476 -92 -518 -10 -27 -43 -44 -61 -33 -20 12 -15 45 65 489 8 45 32 76 59 76
13 0 26 -6 29 -14z"/>
<path d="M7770 3060 c-164 -25 -279 -109 -309 -225 -14 -56 -41 -332 -41 -426
0 -73 2 -81 30 -113 63 -71 213 -82 364 -26 71 27 150 98 170 153 30 81 83
462 72 520 -7 39 -47 84 -91 102 -43 18 -131 25 -195 15z m27 -156 c7 -19 -43
-454 -58 -501 -10 -32 -39 -50 -59 -38 -5 3 -10 30 -10 58 0 82 46 451 59 475
14 26 59 30 68 6z"/>
<path d="M4523 2968 c-6 -7 -13 -35 -17 -61 -9 -71 -40 -134 -75 -155 -25 -14
-29 -21 -24 -42 3 -14 7 -26 8 -28 2 -3 188 20 193 24 6 4 -39 238 -49 256
-11 21 -23 23 -36 6z"/>
<path d="M6985 2951 c-151 -44 -206 -109 -208 -246 -1 -109 27 -148 142 -196
165 -69 181 -81 181 -139 0 -46 -17 -79 -45 -86 -44 -11 -58 11 -52 83 l6 63
-27 -1 c-15 0 -67 -6 -117 -12 l-90 -12 1 -70 c1 -83 20 -127 67 -152 26 -15
55 -18 152 -18 142 1 211 22 281 87 35 32 45 50 55 96 14 69 7 161 -15 195
-19 29 -104 76 -203 113 -80 30 -93 44 -93 99 0 49 25 78 62 73 21 -3 23 -8
24 -58 1 -54 2 -55 30 -53 93 8 199 24 207 32 5 5 8 42 5 82 -4 67 -6 74 -37
99 -18 15 -46 31 -63 34 -59 12 -203 5 -263 -13z"/>
<path d="M2266 2924 c-3 -8 -6 -28 -6 -44 0 -24 -6 -30 -37 -41 -57 -18 -57
-18 -6 -53 40 -27 51 -42 63 -84 l16 -51 33 26 c32 25 36 26 79 14 24 -6 47
-10 49 -7 2 2 -5 23 -17 47 -21 40 -21 44 -6 76 23 49 21 53 -29 53 -39 0 -52
6 -89 40 -36 33 -45 37 -50 24z"/>
<path d="M6386 2864 c-55 -7 -104 -15 -109 -17 -5 -1 -33 -75 -61 -162 l-53
-160 -7 153 c-6 107 -11 152 -20 152 -15 0 -241 -31 -242 -33 -1 -2 44 -751
45 -753 1 0 47 5 104 12 56 7 109 13 117 14 13 0 15 22 13 153 l-3 152 51
-142 c51 -142 52 -143 82 -143 36 0 210 21 216 26 2 2 -31 89 -74 194 l-77
191 67 177 c37 97 70 183 72 190 6 14 10 14 -121 -4z"/>
<path d="M9568 2863 c7 -3 16 -2 19 1 4 3 -2 6 -13 5 -11 0 -14 -3 -6 -6z"/>
<path d="M5450 2757 c-120 -27 -212 -99 -227 -176 -8 -44 31 -387 52 -459 33
-110 104 -149 259 -139 97 6 156 24 222 68 58 39 74 79 74 183 l0 87 -32 -5
c-46 -8 -187 -26 -200 -26 -7 0 -9 -25 -5 -77 3 -43 1 -85 -4 -95 -11 -21 -52
-24 -68 -5 -12 15 -51 355 -51 447 0 60 7 70 51 70 26 0 36 -29 44 -128 l8
-82 41 1 c22 0 77 6 121 13 l80 12 -3 74 c-6 176 -64 238 -232 246 -41 2 -100
-2 -130 -9z"/>
<path d="M2750 2738 c1 -31 89 -253 104 -262 13 -9 21 -6 35 13 17 22 21 23
51 12 18 -6 50 -11 71 -11 33 0 36 2 32 21 -4 13 -23 28 -49 39 -55 24 -123
87 -164 151 -24 36 -38 49 -56 49 -13 0 -24 -6 -24 -12z"/>
<path d="M4900 2670 c-30 -5 -100 -14 -154 -21 l-99 -12 7 -371 c4 -204 9
-372 11 -374 4 -4 173 15 213 24 22 5 24 9 20 67 l-3 62 44 0 45 0 14 -55 c7
-30 14 -56 15 -57 4 -3 228 25 233 29 2 3 -50 164 -115 359 -118 353 -119 354
-147 355 -16 1 -54 -2 -84 -6z m13 -347 c40 -147 40 -153 -15 -153 -27 0 -28
1 -30 63 -5 120 -4 227 2 227 3 0 22 -62 43 -137z"/>
<path d="M4042 2560 c-68 -10 -125 -19 -127 -22 -4 -4 170 -707 177 -714 7 -6
384 44 429 57 22 7 50 24 61 38 17 22 20 36 15 96 -8 103 -35 175 -76 202 -19
13 -47 23 -62 23 -39 0 -36 13 6 33 40 19 50 46 43 115 -7 64 -35 119 -81 156
-38 30 -42 31 -150 33 -65 1 -163 -6 -235 -17z m208 -120 c21 -11 40 -67 40
-117 0 -18 -1 -33 -3 -33 -1 0 -16 -4 -34 -9 l-31 -9 -17 75 c-9 41 -14 81
-11 89 6 16 30 18 56 4z m88 -325 c8 -22 15 -62 15 -89 2 -46 0 -50 -25 -57
-17 -4 -30 -3 -34 3 -6 10 -43 163 -44 181 0 5 17 7 38 5 33 -3 38 -7 50 -43z"/>
<path d="M3387 2475 c-93 -13 -171 -25 -173 -28 -6 -6 213 -688 224 -699 5 -4
343 32 380 41 6 2 1 31 -14 80 l-15 53 -57 -6 c-31 -4 -69 -9 -84 -12 -26 -5
-28 -2 -47 64 -12 38 -21 74 -21 80 0 6 31 14 70 18 78 7 74 -1 45 97 -14 46
-12 45 -106 34 l-56 -7 -20 69 -20 70 21 5 c11 2 47 8 79 11 31 4 57 10 57 14
-1 3 -9 35 -19 71 -22 79 -11 77 -244 45z"/>
<path d="M2950 2418 c-80 -11 -147 -22 -149 -24 -2 -2 10 -74 28 -160 17 -86
30 -158 28 -161 -2 -2 -41 63 -87 144 -45 82 -85 152 -90 156 -6 7 -297 -26
-305 -35 -2 -2 86 -222 242 -602 l37 -88 60 6 c92 10 126 17 126 27 0 5 -34
95 -75 200 -42 106 -74 194 -71 196 2 2 31 -42 63 -99 33 -57 85 -146 116
-198 l55 -95 64 3 c34 2 66 7 69 10 3 4 -12 99 -33 212 -20 113 -37 211 -35
218 1 8 36 -84 77 -203 l75 -217 65 6 c99 10 132 17 127 30 -2 6 -55 165 -118
354 -63 188 -116 341 -119 341 -3 -1 -70 -10 -150 -21z"/>
<path d="M1999 2309 c-75 -8 -137 -36 -168 -75 -43 -55 -27 -118 97 -374 79
-165 107 -201 179 -236 52 -26 68 -29 158 -29 87 0 107 3 157 27 91 42 107 95
64 209 -38 98 -110 268 -139 325 -61 120 -178 171 -348 153z m94 -137 c21 -23
197 -419 197 -443 0 -23 -15 -32 -39 -24 -27 8 -228 444 -217 471 7 20 40 17
59 -4z"/>
<path d="M1300 2211 c-107 -38 -135 -108 -86 -212 53 -109 172 -322 206 -367
51 -68 128 -104 235 -110 103 -5 182 15 233 62 43 40 45 71 13 157 -35 91 -31
89 -146 73 -55 -7 -103 -13 -108 -14 -4 0 9 -32 29 -71 19 -39 33 -77 30 -85
-8 -20 -50 -17 -68 4 -30 33 -230 433 -224 447 7 20 51 19 71 -1 9 -9 32 -48
52 -88 19 -39 39 -76 44 -82 6 -7 38 -7 110 3 56 7 105 15 108 19 8 8 -66 145
-101 188 -16 19 -54 47 -86 63 -77 37 -227 44 -312 14z"/>
<path d="M8108 2223 c7 -3 16 -2 19 1 4 3 -2 6 -13 5 -11 0 -14 -3 -6 -6z"/>
<path d="M7942 2210 c-34 -4 -65 -10 -69 -14 -8 -7 112 4 147 15 31 9 10 9
-78 -1z"/>
<path d="M7788 2183 c7 -3 16 -2 19 1 4 3 -2 6 -13 5 -11 0 -14 -3 -6 -6z"/>
<path d="M2283 1533 c9 -2 23 -2 30 0 6 3 -1 5 -18 5 -16 0 -22 -2 -12 -5z"/>
</g>
</svg>
